<?xml version="1.0" encoding="UTF-8"?><svg id="Layer_1" xmlns="http://www.w3.org/2000/svg" width="401.5" height="422.22" xmlns:xlink="http://www.w3.org/1999/xlink" viewBox="0 0 401.5 422.22"><defs><style>.cls-1,.cls-2{fill:none;}.cls-3{clip-path:url(#clippath);}.cls-4{fill:#f4a4a6;}.cls-5{fill:#f3e178;}.cls-6{fill:#f9cdd3;}.cls-7{fill:#f9e7e7;}.cls-8{fill:#f9b038;}.cls-9{fill:#fff;}.cls-10{fill:#fce5ea;}.cls-11{fill:#16763f;}.cls-12,.cls-13{fill:#0d4628;}.cls-13{font-family:ArgueDEMO, 'Argue DEMO';font-size:92.15px;}.cls-2{stroke:#0d4628;stroke-miterlimit:10;}</style><clipPath id="clippath"><path class="cls-1" d="M399.4,212.26c1.21,50.42-15.39,127.65-58.15,142.1-21.27,7.19-40.77-3.94-60.6,12.15-16.69,13.54-13.04,29.68-29.59,42.45-9.93,7.66-25.02,12.48-56.48,8.13-35.63-4.93-146.19-20.24-180.05-107.09-5.15-13.21-23.23-59.58-2.65-94.89,11.89-20.4,30.94-27.27,30.52-44.6-.51-20.97-28.73-24.25-34.08-43.56C-4.95,79.1,134.09-24.03,194.57,7.44c11.54,6.01,20.45,17.03,43.82,24.57,26.31,8.48,42.55,3.39,57.1,4.82,51.53,5.05,101.95,93.84,103.9,175.44Z"/></clipPath></defs><g class="cls-3"><ellipse class="cls-7" cx="197.59" cy="209.55" rx="241.94" ry="234.36"/><path class="cls-8" d="M145.6,285.26c34.77,32.38,35.08,109.35,7.11,126.12-22.09,13.24-59.56-12.39-78.68-25.47-16.22-11.09-65.28-43.62-71.57-100.64-4.21-38.2,8.49-85.11,29.7-90.25,4.22-1.02,8.98-.44,16.33,.45,8.33,1.01,24.56,2.99,34.68,12.03,11.89,10.62,3.92,20.77,13.45,37.51,12.76,22.41,31.59,24.08,48.98,40.26Z"/><path class="cls-12" d="M312.49,42.9c1,8.37-23.21,13.89-58.46,34.48-31.88,18.62-29.44,24.24-46.09,29.23-33.81,10.13-75.95-3.46-81.32-23.23-3.69-13.59,12.11-22.2,7.5-37.48-5.38-17.81-30.32-17.52-30.73-27.73-.54-13.48,42.04-35.32,75.7-23.23,14.58,5.24,10.54,10.75,27.73,19.49,26.51,13.47,45.11,4.92,88.44,18.74,13.48,4.3,16.88,6.79,17.24,9.74Z"/><g><g><path class="cls-4" d="M25.07,380.59c-2.38-.72-4.76-1.43-7.15-2.15-11.02-3.31-14.76-14.08-17.69-20.74-2.5-5.7-6.8-14.11-4.98-23.74,.35-1.88,.72-2.68,1.31-4.59,5.95-19.18-.43-36.1,5.91-37.54,3.02-.68,6.32,2.72,8.61,1.4,2.82-1.62-.53-7.66,1.76-8.5,1.65-.61,3.7,2.44,8.44,3.68,4.89,1.28,9.3-.23,12.02-1.17,6.82-2.35,7.15-5.59,10.84-5.16,3.96,.46,4.9,4.33,10.09,6.18,4.27,1.52,8.51,.63,11.21-.24,2.49,1.56,5.28,3.84,6.07,6.79,.85,3.18-1.2,5.06,.14,6.35,2.23,2.16,9.33-1.83,12.16,.22,3.46,2.51-1.82,12.13-2.63,13.61-17.78,32.6-19.93,38.42-29.69,57.23-4.22,8.13-15.44,11.69-26.44,8.39Z"/><path class="cls-11" d="M33.36,382.27c-2.73,0-5.58-.41-8.42-1.26l-7.15-2.15c-10.32-3.1-14.31-12.45-17.23-19.28-.25-.59-.5-1.16-.73-1.71-.2-.46-.42-.94-.64-1.44-2.56-5.73-6.07-13.57-4.37-22.56,.26-1.39,.54-2.22,.88-3.27,.13-.4,.28-.84,.44-1.37,2.93-9.44,2.85-18.49,2.79-25.1-.06-7.19-.1-11.94,3.44-12.75,1.58-.36,3.21,.3,4.65,.89,1.45,.59,2.83,1.15,3.84,.57,1.24-.71,1.03-2.6,.83-4.42-.2-1.77-.4-3.59,1-4.11,1.02-.37,2.01,.26,3.38,1.14,1.33,.85,2.98,1.91,5.33,2.53,4.77,1.25,9.15-.26,11.77-1.16,3.22-1.11,4.94-2.4,6.32-3.45,1.53-1.15,2.63-1.98,4.71-1.74,2.17,.25,3.51,1.47,4.92,2.77,1.32,1.2,2.81,2.56,5.26,3.44,3.2,1.14,6.87,1.06,10.93-.24l.2-.06,.17,.11c3.49,2.19,5.6,4.56,6.26,7.05,.45,1.68,.14,3.01-.1,4.07-.25,1.08-.35,1.62,.12,2.07,.95,.92,3.25,.47,5.46,.03,2.5-.49,5.08-.99,6.65,.14,3.27,2.37-.16,9.89-2.49,14.16-11.89,21.8-16.85,31.74-21.64,41.35-2.37,4.74-4.81,9.65-8.05,15.89-3.25,6.27-10.42,9.87-18.54,9.87Zm-8.16-2.11c10.87,3.26,21.77-.17,25.92-8.17,3.24-6.24,5.68-11.14,8.05-15.88,4.8-9.62,9.76-19.57,21.64-41.35,3.69-6.76,4.71-11.63,2.75-13.05-1.26-.91-3.65-.44-5.96,.01-2.55,.5-4.96,.97-6.24-.27-.85-.82-.62-1.83-.37-2.91,.24-1.02,.5-2.18,.11-3.65-.59-2.22-2.51-4.38-5.7-6.42-4.16,1.3-7.96,1.36-11.29,.17-2.62-.93-4.18-2.36-5.56-3.62-1.37-1.25-2.55-2.32-4.43-2.54-1.74-.21-2.62,.47-4.08,1.57-1.36,1.02-3.21,2.42-6.57,3.58-2.71,.93-7.26,2.5-12.28,1.18-2.48-.65-4.27-1.8-5.58-2.64-1.16-.74-2-1.28-2.6-1.06-.7,.26-.63,1.43-.43,3.19,.22,2.01,.48,4.29-1.26,5.29-1.38,.79-3.02,.13-4.61-.51-1.38-.56-2.82-1.14-4.13-.84-2.86,.65-2.82,5.12-2.76,11.88,.06,6.67,.14,15.8-2.83,25.36-.17,.53-.31,.98-.45,1.39-.35,1.06-.6,1.83-.85,3.16-1.65,8.72,1.79,16.42,4.31,22.04,.22,.5,.44,.98,.64,1.45,.24,.55,.48,1.12,.74,1.71,2.85,6.67,6.75,15.81,16.67,18.79l7.15,2.15Z"/></g><g><path class="cls-6" d="M16.03,375.19c-1.59-.73-3.19-1.47-4.78-2.2-7.36-3.4-8.17-12.8-9.1-18.66-.63-3.97-1.39-11.37,.59-20.58,3.06-14.25,9.01-15.97,10.09-27.76,.12-1.26,.36-4.63,2.55-7.94,.17-.26,4.16-6.13,8.73-5.55,2.61,.33,2.5,2.4,5.44,3.58,5.64,2.27,11.54-3.12,13.5-1.03,1.39,1.48-.75,5.09,.17,5.6,1.22,.68,4.56-6.02,8.46-5.89,2.72,.09,4.95,3.47,6.62,7.19,.71,2.57,2.16,6.18,5.34,7.62,3.74,1.69,7.35-.76,8.73,.81,2.05,2.32-3.45,10.29-4.29,11.52-18.57,26.99-21.15,31.86-31.5,47.46-4.48,6.74-13.2,9.22-20.55,5.83Z"/><path class="cls-11" d="M22.95,377.16c-2.38,0-4.8-.51-7.11-1.57l-4.78-2.2c-6.98-3.22-8.22-11.47-9.12-17.5-.08-.52-.15-1.02-.23-1.5-1.09-6.84-.89-13.82,.6-20.74,1.5-6.96,3.7-11,5.64-14.57,2.09-3.83,3.89-7.15,4.44-13.14v-.13c.14-1.41,.44-4.72,2.62-8.01,.17-.26,4.28-6.36,9.16-5.74,1.54,.2,2.24,.94,2.98,1.73,.63,.67,1.28,1.36,2.57,1.88,2.96,1.19,6.07,.14,8.57-.71,2.15-.73,4.02-1.36,5.09-.22,.94,1,.57,2.66,.27,3.99-.12,.54-.3,1.37-.19,1.54,.26-.02,1.18-1.03,1.85-1.77,1.63-1.8,3.83-4.25,6.39-4.19,2.5,.08,4.79,2.52,7.01,7.45,1.08,3.88,2.79,6.34,5.12,7.39,1.86,.84,3.67,.6,5.27,.38,1.5-.2,2.8-.38,3.61,.53,1.88,2.12-1.27,7.72-4.25,12.04-12.42,18.05-17.75,26.31-22.9,34.29-2.54,3.94-5.17,8.01-8.61,13.19-3.23,4.86-8.51,7.56-14,7.56Zm-6.74-2.37c7.2,3.32,15.61,.94,20-5.67,3.43-5.17,6.06-9.24,8.6-13.18,5.16-7.99,10.49-16.25,22.9-34.29,3.79-5.51,5.45-9.71,4.33-10.98-.5-.56-1.53-.42-2.83-.25-1.63,.22-3.66,.49-5.75-.45-2.58-1.17-4.45-3.82-5.58-7.9-2.02-4.47-4.11-6.8-6.21-6.87-2.11-.06-4.2,2.22-5.71,3.9-1.3,1.43-2.15,2.39-2.95,1.94-.69-.38-.47-1.36-.22-2.49,.25-1.13,.56-2.54-.06-3.2-.68-.73-2.22-.21-4.16,.45-2.63,.89-5.91,2-9.18,.69-1.48-.59-2.22-1.39-2.88-2.1-.68-.73-1.22-1.3-2.45-1.46-4.35-.56-8.27,5.29-8.31,5.35-2.05,3.11-2.34,6.26-2.46,7.61v.13c-.58,6.17-2.42,9.56-4.56,13.48-1.91,3.51-4.08,7.49-5.55,14.33-1.46,6.82-1.66,13.68-.59,20.42,.08,.48,.15,.98,.23,1.5,.87,5.83,2.07,13.81,8.62,16.83l4.78,2.2Z"/></g><g><path class="cls-10" d="M21.57,376.59c-1.59-.73-3.19-1.47-4.78-2.2-7.36-3.4-8.17-12.8-9.1-18.66-.37-2.34-1.12-8.04,.59-20.58,2.91-21.28,8.61-30.74,12.64-35.7,4.02-4.95,6.8-5.92,8.73-5.55,2.32,.45,2.48,2.65,5.44,3.58,3.69,1.16,5.61-1.57,8.88-.38,2.92,1.06,2.2,4.02,4.79,4.95,2.88,1.04,4.99-1.99,10.13-3.01,3.3-.65,6.2-.16,8.13,.37-.57,4.08-.8,9.62,2.16,11.56,2.95,1.94,7.22-.9,8.73,.81,2.05,2.32-3.45,10.29-4.29,11.52-18.57,26.99-21.15,31.86-31.5,47.46-4.48,6.74-13.2,9.22-20.55,5.83Z"/><path class="cls-11" d="M28.49,378.57c-2.38,0-4.8-.51-7.11-1.57l-4.78-2.2c-6.98-3.22-8.22-11.47-9.12-17.5-.08-.52-.15-1.02-.23-1.5-.3-1.87-1.21-7.56,.59-20.71,2.24-16.38,6.41-28.13,12.73-35.91,3.53-4.35,6.53-6.22,9.16-5.7,1.27,.25,1.97,.98,2.66,1.69,.7,.72,1.42,1.47,2.83,1.91,1.74,.55,3.03,.18,4.39-.22,1.35-.39,2.76-.8,4.51-.16,1.67,.61,2.28,1.79,2.81,2.83,.48,.93,.89,1.73,1.97,2.12,1.43,.52,2.68-.11,4.42-.98,1.4-.71,3.15-1.58,5.48-2.05,2.66-.53,5.46-.4,8.33,.38l.37,.1-.05,.38c-.83,5.98-.17,9.73,1.96,11.13,1.41,.93,3.24,.64,4.85,.38,1.59-.25,3.09-.49,3.97,.5,1.88,2.12-1.27,7.72-4.25,12.04-12.42,18.05-17.75,26.3-22.9,34.28-2.54,3.94-5.17,8.01-8.61,13.19-3.23,4.86-8.52,7.56-14,7.56Zm.4-84.29c-2.13,0-4.69,1.83-7.63,5.46-6.22,7.66-10.32,19.26-12.54,35.48-1.78,13.01-.89,18.61-.59,20.45,.08,.48,.15,.98,.23,1.5,.88,5.83,2.07,13.81,8.62,16.83l4.78,2.2c7.2,3.32,15.61,.94,20-5.67,3.43-5.17,6.06-9.24,8.6-13.18,5.16-7.99,10.49-16.25,22.9-34.29,3.79-5.51,5.44-9.71,4.33-10.98-.55-.63-1.77-.44-3.17-.21-1.77,.28-3.78,.6-5.47-.52-2.4-1.57-3.21-5.48-2.41-11.6-2.6-.65-5.14-.74-7.55-.26-2.22,.44-3.83,1.25-5.26,1.97-1.86,.93-3.32,1.67-5.11,1.02-1.41-.51-1.95-1.55-2.46-2.55-.5-.99-.98-1.92-2.33-2.4-1.48-.54-2.63-.2-3.96,.18-1.36,.39-2.9,.84-4.9,.21-1.63-.51-2.46-1.37-3.2-2.14-.67-.69-1.2-1.24-2.19-1.43-.22-.04-.44-.06-.67-.06Z"/></g><g><path class="cls-6" d="M45.3,391.79c1.71,1.18,3.42,2.36,5.13,3.53,7.91,5.45,17.98,.58,24.51-2.01,5.59-2.22,14.11-5.05,20.6-13.05,1.26-1.56,1.7-2.37,2.87-4.13,11.77-17.56,27.83-24.86,25.84-30.33-.95-2.6-5.17-2.55-5.28-5.08-.14-3.11,6.12-4.97,5.65-7.17-.34-1.59-3.67-.9-6.94-3.37-3.37-2.55-4.37-6.71-4.98-9.28-1.54-6.43,.79-8.93-1.34-11.23-2.28-2.47-5.71-.43-9.66-2.79-3.25-1.94-4.63-5.55-5.29-8.05-2.41-.66-5.52-1.04-8.16,.46-2.84,1.62-3.29,4.37-4.92,4.33-2.74-.07-3.16-7.84-6.1-8.4-3.61-.69-8.39,9.73-9.13,11.34-16.26,35.24-19.66,40.8-29.29,60.78-4.16,8.64-1.41,19.02,6.49,24.45Z"/><path class="cls-11" d="M58.78,398.25c-2.96,0-5.89-.7-8.6-2.56l-5.13-3.53c-8.13-5.6-10.92-16.11-6.64-25.01,3.19-6.63,5.75-11.76,8.22-16.73,5.01-10.08,10.2-20.5,21.06-44.04,2.13-4.62,6.19-12.25,9.62-11.58,1.71,.33,2.6,2.53,3.45,4.66,.74,1.82,1.5,3.71,2.58,3.74h.02c.56,0,.97-.5,1.64-1.39,.69-.91,1.54-2.04,3.03-2.88,2.23-1.27,5.09-1.44,8.49-.51l.25,.07,.06,.25c.98,3.73,2.69,6.35,5.09,7.79,1.84,1.1,3.59,1.2,5.14,1.29,1.71,.1,3.33,.19,4.61,1.58,1.23,1.33,1.13,2.76,1,4.58-.12,1.7-.27,3.81,.45,6.85,.59,2.46,1.57,6.57,4.82,9.03,1.59,1.21,3.2,1.63,4.48,1.96,1.34,.35,2.4,.63,2.62,1.67,.28,1.31-1.12,2.37-2.61,3.49-1.45,1.09-3.09,2.33-3.03,3.75,.05,1.07,1.06,1.61,2.24,2.23,1.17,.62,2.5,1.32,3.01,2.73,1.11,3.04-2.52,6.3-8.03,11.24-5.09,4.57-12.06,10.83-17.86,19.48-.32,.48-.59,.89-.83,1.27-.63,.98-1.14,1.75-2.06,2.89-6.03,7.44-13.74,10.44-19.36,12.63l-1.41,.55c-.53,.21-1.09,.44-1.66,.67-4.24,1.73-9.48,3.86-14.65,3.86Zm-13.24-6.82l5.13,3.53c7.07,4.87,15.95,1.25,22.43-1.39,.58-.24,1.14-.46,1.67-.67l1.42-.56c5.53-2.15,13.11-5.1,19-12.36,.9-1.11,1.37-1.83,2.01-2.82,.25-.38,.51-.79,.84-1.28,5.86-8.74,12.88-15.04,18-19.65,5.05-4.53,8.69-7.81,7.79-10.28-.4-1.09-1.52-1.68-2.6-2.25-1.3-.68-2.64-1.39-2.71-2.97-.08-1.88,1.76-3.26,3.38-4.49,1.2-.91,2.44-1.84,2.28-2.6-.1-.49-.75-.68-1.98-1-1.29-.34-3.06-.8-4.79-2.11-3.5-2.64-4.53-6.95-5.14-9.52-.76-3.17-.59-5.45-.47-7.12,.13-1.79,.21-2.87-.77-3.92-1.05-1.13-2.36-1.21-4.02-1.3-1.65-.09-3.52-.2-5.54-1.41-2.55-1.53-4.37-4.24-5.42-8.07-3.06-.8-5.61-.63-7.58,.49-1.33,.76-2.1,1.76-2.77,2.65-.72,.95-1.38,1.72-2.39,1.74-1.66-.04-2.49-2.11-3.37-4.29-.77-1.91-1.57-3.89-2.8-4.12-2.02-.38-5.26,3.75-8.64,11.06-10.88,23.58-16.07,34.01-21.09,44.09-2.47,4.97-5.03,10.1-8.22,16.72-4.1,8.5-1.43,18.55,6.34,23.9h0Z"/></g><g><path class="cls-10" d="M43.21,389.86c1.44,.99,2.89,1.99,4.33,2.98,6.68,4.6,15.12,.57,20.6-1.57,2.19-.85,7.44-3.07,17.26-10.82,16.67-13.16,21.82-22.78,23.98-28.7,2.16-5.93,1.56-8.79,.25-10.25-1.58-1.75-3.53-.79-5.85-2.86-2.88-2.58-1.54-5.59-4.23-7.79-2.41-1.97-4.56,.13-6.69-1.61-2.37-1.94-.86-5.27-2.63-10.18-1.14-3.15-3.05-5.38-4.49-6.77-3.19,2.53-7.8,5.51-10.98,3.95-3.17-1.55-2.94-6.63-5.17-7.06-3.04-.59-7.01,8.11-7.63,9.45-13.51,29.42-16.34,34.06-24.34,50.74-3.46,7.21-1.09,15.91,5.58,20.5Z"/><path class="cls-11" d="M54.67,395.41c-2.53,0-5.05-.6-7.38-2.2l-4.33-2.98c-6.89-4.74-9.3-13.6-5.72-21.05,2.65-5.53,4.78-9.82,6.84-13.97,4.17-8.41,8.48-17.11,17.5-36.76,2.17-4.73,5.32-10.23,8.11-9.69,1.29,.25,1.86,1.66,2.46,3.14,.61,1.51,1.3,3.22,2.82,3.96,2.29,1.12,5.83-.19,10.51-3.9l.3-.24,.28,.27c2.13,2.06,3.68,4.4,4.6,6.94,.8,2.23,.95,4.16,1.07,5.72,.15,1.92,.25,3.31,1.43,4.27,.89,.73,1.79,.68,2.83,.63,1.16-.06,2.48-.14,3.86,.99,1.44,1.18,1.81,2.58,2.18,3.94,.36,1.36,.71,2.65,2.07,3.86,1.1,.99,2.11,1.23,3.08,1.47,.96,.23,1.94,.47,2.8,1.43,1.79,1.99,1.74,5.49-.16,10.7-3.4,9.31-11.29,18.77-24.12,28.9-10.3,8.13-15.62,10.2-17.37,10.89-.45,.17-.91,.36-1.39,.55-3.54,1.42-7.91,3.17-12.24,3.17Zm14.63-85.82c-1.67,0-4.29,3.47-6.92,9.2-9.04,19.69-13.35,28.39-17.52,36.8-2.05,4.15-4.18,8.43-6.83,13.96-3.39,7.06-1.1,15.45,5.43,19.95l4.33,2.98c5.94,4.09,13.37,1.11,18.79-1.06,.49-.19,.95-.38,1.4-.56,1.72-.67,6.95-2.71,17.15-10.76,12.7-10.03,20.5-19.35,23.84-28.51,1.75-4.8,1.87-8.1,.34-9.81-.68-.75-1.42-.93-2.35-1.16-1.03-.25-2.19-.53-3.46-1.66-1.56-1.39-1.97-2.93-2.33-4.29-.36-1.33-.66-2.48-1.88-3.48-1.11-.91-2.15-.85-3.25-.79-1.12,.06-2.28,.13-3.44-.82-1.47-1.2-1.59-2.83-1.75-4.88-.12-1.58-.26-3.37-1.02-5.49-.83-2.3-2.21-4.43-4.11-6.33-4.82,3.75-8.57,5.02-11.14,3.76-1.82-.89-2.58-2.77-3.25-4.42-.53-1.31-.99-2.45-1.82-2.61-.07-.01-.14-.02-.22-.02Z"/></g><g><path class="cls-6" d="M38.32,388.13c1.44,.99,2.89,1.99,4.33,2.98,6.68,4.6,15.12,.57,20.6-1.57,2.19-.85,7.44-3.07,17.26-10.82,16.67-13.16,21.82-22.78,23.98-28.7,2.16-5.93,1.56-8.79,.25-10.25-1.58-1.75-3.53-.79-5.85-2.86-2.88-2.58-1.54-5.59-4.23-7.79-2.41-1.97-4.56,.13-6.69-1.61-2.37-1.94-.86-5.27-2.63-10.18-1.14-3.15-3.05-5.38-4.49-6.77-3.19,2.53-7.8,5.51-10.98,3.95-3.17-1.55-2.94-6.63-5.17-7.06-3.04-.59-7.01,8.11-7.63,9.45-13.51,29.42-16.34,34.06-24.34,50.74-3.46,7.21-1.09,15.91,5.58,20.5Z"/><path class="cls-11" d="M49.79,393.68c-2.53,0-5.04-.6-7.38-2.2l-4.33-2.98c-6.89-4.74-9.3-13.6-5.72-21.05,2.65-5.53,4.78-9.82,6.84-13.97,4.17-8.41,8.48-17.11,17.5-36.76,2.17-4.74,5.35-10.22,8.11-9.69,1.29,.25,1.86,1.66,2.46,3.14,.61,1.51,1.3,3.22,2.82,3.96,2.3,1.12,5.83-.19,10.51-3.9l.3-.24,.28,.27c2.13,2.06,3.68,4.39,4.6,6.94,.8,2.23,.95,4.16,1.07,5.72,.15,1.92,.25,3.31,1.43,4.27,.9,.73,1.79,.68,2.83,.63,1.17-.07,2.48-.14,3.86,.99,1.44,1.18,1.81,2.58,2.18,3.94,.36,1.36,.71,2.65,2.07,3.86,1.1,.99,2.11,1.23,3.08,1.47,.95,.23,1.94,.47,2.8,1.43,1.79,1.99,1.74,5.49-.16,10.7-3.4,9.31-11.29,18.77-24.12,28.9-10.3,8.13-15.62,10.2-17.37,10.89-.45,.17-.91,.36-1.39,.55-3.54,1.42-7.91,3.17-12.24,3.17Zm-11.21-5.91l4.33,2.98c5.94,4.09,13.37,1.11,18.79-1.06,.49-.19,.95-.38,1.4-.56,1.72-.67,6.96-2.71,17.15-10.76,12.7-10.03,20.5-19.35,23.84-28.51,1.75-4.8,1.86-8.1,.33-9.81-.68-.75-1.42-.93-2.35-1.16-1.03-.25-2.19-.53-3.46-1.66-1.56-1.39-1.97-2.93-2.33-4.29-.36-1.33-.66-2.48-1.88-3.48-1.11-.91-2.15-.85-3.25-.79-1.12,.06-2.28,.13-3.44-.82-1.47-1.2-1.59-2.83-1.75-4.88-.12-1.58-.26-3.37-1.02-5.49-.83-2.3-2.21-4.43-4.11-6.33-4.82,3.76-8.57,5.02-11.14,3.76-1.82-.89-2.58-2.77-3.25-4.42-.53-1.31-.99-2.45-1.81-2.61-1.65-.32-4.38,3.19-7.13,9.17-9.04,19.69-13.35,28.39-17.52,36.81-2.05,4.15-4.18,8.43-6.83,13.96-3.39,7.06-1.1,15.45,5.43,19.95h0Z"/></g><g><path class="cls-4" d="M27.48,383.65l4.03,1.98c2.77,1.36,7.54,1.05,17.64-4.87,5.15-3.01,11-6.45,17.34-13.45,0,0,10.2-11.26,14.46-29.26,.61-2.57,1.51-7.35-.77-9.33-1.53-1.33-3.13-.12-5.33-1.61-2.74-1.85-1.87-4.8-4.4-6.35-2.27-1.38-3.93,.88-5.93-.34-2.23-1.36-1.25-4.63-3.25-8.78-1.28-2.66-3.15-4.36-4.53-5.38-2.51,2.82-6.2,6.29-9.1,5.41-2.88-.87-3.17-5.51-5.14-5.53-2.31-.02-4.26,5.95-5.68,9.83-4.97,13.65-7.21,11.3-11.59,23.42-2.04,5.65-5.26,14.85-4.54,26.62,.79,12.98,5.5,17.01,6.79,17.64Z"/><path class="cls-11" d="M34.63,386.73c-1.27,0-2.37-.24-3.32-.7l-4.03-1.98c-.25-.12-6.12-3.17-7.03-18.01-.74-12.1,2.71-21.66,4.57-26.79,2.15-5.95,3.77-8.41,5.48-11.02,1.76-2.68,3.58-5.44,6.11-12.4l.34-.95c1.47-4.09,3.3-9.18,5.73-9.18h.02c1.19,.01,1.83,1.21,2.51,2.48,.66,1.25,1.42,2.67,2.76,3.07,2.03,.61,5.02-1.21,8.64-5.28l.27-.3,.32,.24c2.05,1.52,3.62,3.38,4.66,5.54,.91,1.89,1.22,3.62,1.48,5.01,.31,1.7,.53,2.93,1.61,3.58,.81,.49,1.56,.31,2.44,.08,1.01-.26,2.16-.55,3.49,.26,1.38,.84,1.84,2.06,2.29,3.24,.44,1.16,.86,2.26,2.13,3.12,1.03,.69,1.91,.75,2.76,.79,.86,.05,1.75,.1,2.61,.85,1.8,1.56,2.1,4.75,.91,9.76-4.23,17.9-14.46,29.34-14.56,29.46-6.39,7.05-12.26,10.49-17.45,13.53-6.41,3.75-11.21,5.59-14.73,5.59Zm7.86-80.14c-1.81,0-3.67,5.17-4.9,8.6l-.34,.95c-2.57,7.06-4.42,9.87-6.2,12.59-1.68,2.56-3.28,4.98-5.39,10.83-1.83,5.07-5.24,14.52-4.51,26.44,.88,14.33,6.48,17.24,6.54,17.27h0l4.03,1.98c3.32,1.63,8.79,.09,17.22-4.85,5.13-3.01,10.94-6.41,17.24-13.36,.1-.11,10.18-11.4,14.36-29.07,1.09-4.6,.87-7.59-.63-8.9-.63-.55-1.27-.59-2.09-.63-.92-.05-1.97-.12-3.2-.94-1.5-1.01-2.01-2.35-2.46-3.54-.43-1.13-.8-2.11-1.93-2.8-1.01-.62-1.89-.4-2.81-.16-.93,.24-1.99,.51-3.11-.18-1.41-.86-1.68-2.33-2.02-4.18-.26-1.41-.55-3-1.4-4.79-.92-1.92-2.29-3.59-4.07-4.97-3.8,4.19-6.92,5.96-9.28,5.24-1.69-.51-2.54-2.1-3.28-3.5-.57-1.08-1.07-2.01-1.74-2.01h-.01Z"/></g><g><path class="cls-10" d="M31.71,381.89l-3.67-2.58c-2.52-1.78-4.54-6.11-4.2-17.81,.17-5.96,.37-12.75,3.46-21.67,0,0,4.98-14.36,18.72-26.74,1.96-1.76,5.72-4.86,8.55-3.8,1.9,.7,1.61,2.68,3.97,3.9,2.94,1.51,5.11-.67,7.68,.81,2.3,1.32,1.11,3.87,3.15,5.03,2.27,1.3,4.66-1.12,9.26-1.36,2.95-.15,5.34,.67,6.89,1.38-1.27,3.56-2.54,8.46-.38,10.58,2.15,2.11,6.36,.14,7.32,1.85,1.13,2.01-3.17,6.59-5.9,9.7-9.58,10.91-6.44,11.75-14.97,21.42-3.98,4.5-10.49,11.75-21.16,16.77-11.76,5.54-17.56,3.35-18.73,2.52Z"/><path class="cls-11" d="M36.91,383.46c-3.66,0-5.33-1.13-5.45-1.21l-3.67-2.58c-3.29-2.31-4.68-8.09-4.39-18.18,.17-6.01,.37-12.81,3.49-21.8,.05-.14,5.17-14.61,18.84-26.92,3.83-3.45,6.77-4.72,9-3.89,1.07,.4,1.54,1.15,2,1.88,.45,.72,.92,1.47,2.02,2.03,1.36,.7,2.53,.54,3.76,.37,1.25-.17,2.54-.35,3.94,.45,1.35,.78,1.64,1.92,1.9,2.94,.22,.87,.42,1.62,1.24,2.1,1.09,.63,2.28,.23,3.92-.31,1.34-.45,3.01-1,5.11-1.11,2.4-.13,4.78,.35,7.1,1.43l.37,.17-.14,.38c-1.84,5.13-2,8.63-.49,10.12,1,.98,2.61,.96,4.02,.95,1.44-.02,2.79-.03,3.38,1.01,1.19,2.13-2.4,6.19-5.29,9.45l-.66,.75c-4.89,5.56-6.44,8.49-7.94,11.32-1.46,2.76-2.85,5.36-7.03,10.1-3.61,4.09-10.34,11.71-21.31,16.87-6.15,2.89-10.64,3.7-13.72,3.7Zm16.44-73.95c-1.78,0-4.14,1.31-7.02,3.91-13.5,12.16-18.55,26.41-18.6,26.55-3.07,8.86-3.27,15.6-3.44,21.54-.28,9.77,.99,15.31,4.01,17.43l3.67,2.58c.05,.04,5.3,3.56,18.29-2.56,10.8-5.08,17.45-12.61,21.02-16.66,4.12-4.66,5.47-7.22,6.91-9.93,1.53-2.87,3.1-5.84,8.06-11.49l.67-.76c2.42-2.73,6.07-6.86,5.18-8.44-.33-.59-1.38-.57-2.6-.56-1.59,.02-3.38,.04-4.65-1.2-1.77-1.73-1.72-5.31,.14-10.66-2.07-.9-4.2-1.29-6.32-1.18-1.98,.1-3.52,.62-4.87,1.07-1.78,.59-3.19,1.06-4.63,.24-1.15-.66-1.42-1.71-1.66-2.64-.24-.93-.46-1.8-1.49-2.39-1.14-.66-2.18-.51-3.38-.35-1.25,.17-2.67,.37-4.28-.46-1.32-.68-1.87-1.57-2.36-2.35-.43-.69-.77-1.23-1.56-1.53-.33-.12-.69-.19-1.08-.19Z"/></g><g><path class="cls-4" d="M37.98,388.56c-.61-.44-1.02-.62-2.94-2.1-7.48-5.76-11.23-8.67-11.75-10.04-1.97-5.13,3.48-11.72,5.47-13.94,0,0,1.38-7.96,9.19-13.43,1.11-.78,3.29-2.1,5.43-1.05,1.43,.7,1.52,1.86,3.35,2.94,2.28,1.34,3.48,.34,5.49,1.61,1.8,1.14,1.34,2.5,2.94,3.5,1.78,1.12,3.1,0,6.28,.53,2.04,.34,3.83,1.18,5.02,1.84-.37,1.96-.54,4.75,1.28,6.34,1.81,1.59,4.47,1.01,5.4,2.19,1.08,1.38-1.25,3.52-2.71,5.01-5.11,5.2-2.79,6.17-7.35,10.76-2.12,2.14-5.63,5.57-12.36,7.05-7.42,1.63-11.8-.54-12.74-1.21Z"/><path class="cls-11" d="M45.48,390.82c-5.03,0-7.62-1.79-7.76-1.89-.17-.12-.32-.22-.5-.34-.45-.3-1.07-.7-2.46-1.77-8.05-6.2-11.34-8.78-11.9-10.23-1.89-4.93,2.57-11.04,5.47-14.3,.22-1.09,1.93-8.39,9.35-13.59,2.21-1.55,4.19-1.91,5.88-1.09,.78,.38,1.2,.88,1.64,1.4,.43,.51,.87,1.04,1.74,1.55,1.07,.63,1.85,.7,2.69,.78,.85,.08,1.73,.16,2.82,.84,1.03,.65,1.4,1.38,1.73,2.03,.29,.56,.53,1.05,1.2,1.47,.87,.55,1.59,.49,2.68,.39,.88-.07,1.98-.17,3.44,.07,1.66,.27,3.4,.91,5.17,1.89l.28,.15-.06,.31c-.53,2.81-.15,4.8,1.14,5.93,.87,.76,1.99,.98,2.98,1.18,.99,.2,1.93,.38,2.47,1.07,1.24,1.58-.86,3.69-2.39,5.23l-.35,.36c-2.57,2.61-3.21,4.13-3.84,5.59-.61,1.42-1.23,2.88-3.51,5.17-1.95,1.97-5.58,5.63-12.58,7.17-2,.44-3.78,.61-5.33,.61Zm-7.25-2.61s4.23,2.93,12.39,1.14c6.74-1.48,10.25-5.02,12.14-6.93,2.16-2.18,2.72-3.5,3.32-4.9,.66-1.54,1.34-3.13,4.02-5.86l.36-.36c1.3-1.31,3.08-3.1,2.32-4.06-.34-.43-1.08-.58-1.94-.75-1.1-.22-2.35-.47-3.39-1.38-1.48-1.3-1.98-3.47-1.48-6.44-1.59-.85-3.13-1.4-4.61-1.65-1.35-.23-2.35-.14-3.22-.07-1.13,.1-2.11,.18-3.22-.52-.87-.55-1.2-1.2-1.52-1.82-.3-.6-.59-1.16-1.42-1.69-.91-.57-1.61-.64-2.43-.71-.85-.08-1.82-.17-3.06-.9-1-.59-1.52-1.2-1.97-1.74-.41-.49-.74-.88-1.35-1.18-1.4-.69-3.03-.36-4.98,1.02-7.55,5.3-9,13.07-9.01,13.15l-.02,.12-.08,.09c-2.22,2.49-7.2,8.78-5.39,13.49,.49,1.28,4.68,4.51,11.61,9.85,1.36,1.05,1.96,1.45,2.4,1.73,.19,.12,.35,.23,.53,.36Z"/></g><g><path class="cls-6" d="M29.23,382.52c5.5,5.39,22.26,20.16,42.93,14.09,15.57-4.57,29.4-19.82,28.86-21.9-.2-.75-2.3,.2-4.69,.79-11.97,2.97-21.43-5.35-26.12-8.06-7.3-4.22-19.53-4.38-40.98,15.07Z"/><path class="cls-11" d="M62.23,398.5c-14.78,0-26.82-9.31-33.3-15.66l-.33-.33,.35-.31c17.48-15.85,31.44-20.94,41.5-15.13,.76,.44,1.62,1.01,2.61,1.67,5.3,3.5,13.3,8.8,23.18,6.35,.67-.17,1.32-.36,1.9-.54,1.45-.44,2.41-.73,2.96-.42,.19,.1,.31,.27,.37,.48,.67,2.58-13.99,17.98-29.16,22.43-3.46,1.02-6.83,1.46-10.06,1.46Zm-32.35-15.97c7.88,7.61,23.54,19.13,42.16,13.66,15.75-4.63,28.9-19.68,28.56-21.37-.19-.04-1.36,.31-2.22,.56-.6,.18-1.26,.38-1.94,.55-10.25,2.55-18.78-3.1-23.87-6.47-.98-.65-1.83-1.21-2.57-1.64-9.62-5.57-23.11-.62-40.11,14.7Z"/></g><g><path class="cls-10" d="M35.12,390.66c-7.48-1.91-29.09-8.62-38.02-29.81-6.73-15.97-4.55-36.11-2.69-36.75,.68-.23,1.34,2.1,2.46,4.5,5.57,11.99,17.75,15.78,22.75,18.41,7.8,4.1,15.81,14.65,15.5,43.65Z"/><path class="cls-11" d="M35.56,391.22l-.54-.14c-10.74-2.75-29.99-10.3-38.32-30.07-6.21-14.74-4.82-32.84-3.21-36.42,.23-.52,.48-.81,.79-.92,.87-.3,1.36,.86,2.16,2.79,.25,.61,.53,1.27,.84,1.94,4.61,9.93,14.03,14.25,19.66,16.82,1.12,.51,2.09,.96,2.9,1.38,10.7,5.62,15.99,20.44,15.73,44.04v.56ZM-5.48,324.55c-1.43,1.34-3.72,20.2,2.99,36.12,8.04,19.09,26.51,26.6,37.18,29.41,.17-22.91-4.97-37.28-15.27-42.69-.79-.41-1.75-.85-2.86-1.36-5.74-2.63-15.34-7.03-20.09-17.26-.32-.68-.6-1.36-.85-1.98-.37-.9-.83-2-1.1-2.25Z"/></g></g><g><g><path class="cls-4" d="M161.85,454.5c-2.38-.72-4.76-1.43-7.15-2.15-11.02-3.31-14.76-14.08-17.69-20.74-2.5-5.7-6.8-14.11-4.98-23.74,.35-1.88,.72-2.68,1.31-4.59,5.95-19.18-.43-36.1,5.91-37.54,3.02-.68,6.32,2.72,8.61,1.4,2.82-1.62-.53-7.66,1.76-8.5,1.65-.61,3.7,2.44,8.44,3.68,4.89,1.28,9.3-.23,12.02-1.17,6.82-2.35,7.15-5.59,10.84-5.16,3.96,.46,4.9,4.33,10.09,6.18,4.27,1.52,8.51,.63,11.21-.24,2.49,1.56,5.28,3.84,6.07,6.79,.85,3.18-1.2,5.06,.14,6.35,2.23,2.16,9.33-1.83,12.16,.22,3.46,2.51-1.82,12.13-2.63,13.61-17.78,32.6-19.93,38.42-29.69,57.23-4.22,8.13-15.44,11.69-26.44,8.39Z"/><path class="cls-11" d="M170.14,456.19c-2.73,0-5.58-.41-8.42-1.26l-7.15-2.15c-10.32-3.1-14.31-12.45-17.23-19.28-.25-.59-.5-1.16-.73-1.71-.2-.46-.42-.94-.64-1.44-2.56-5.73-6.07-13.57-4.37-22.56,.26-1.39,.54-2.22,.88-3.27,.13-.4,.28-.84,.44-1.37,2.93-9.44,2.85-18.49,2.79-25.1-.06-7.19-.1-11.94,3.44-12.75,1.58-.36,3.21,.3,4.65,.89,1.45,.59,2.83,1.15,3.84,.57,1.24-.71,1.03-2.6,.83-4.42-.2-1.77-.4-3.59,1-4.11,1.02-.37,2.01,.26,3.38,1.14,1.33,.85,2.98,1.91,5.33,2.53,4.77,1.25,9.15-.26,11.77-1.16,3.22-1.11,4.94-2.4,6.32-3.45,1.53-1.15,2.63-1.98,4.71-1.74,2.17,.25,3.51,1.47,4.92,2.77,1.32,1.2,2.81,2.56,5.26,3.44,3.2,1.14,6.87,1.06,10.93-.24l.2-.06,.17,.11c3.49,2.19,5.6,4.56,6.26,7.05,.45,1.68,.14,3.01-.1,4.07-.25,1.08-.35,1.62,.12,2.07,.95,.92,3.25,.47,5.46,.03,2.5-.49,5.08-.99,6.65,.14,3.27,2.37-.16,9.89-2.49,14.16-11.89,21.8-16.85,31.74-21.64,41.35-2.37,4.74-4.81,9.65-8.05,15.89-3.25,6.27-10.42,9.87-18.54,9.87Zm-8.16-2.11c10.87,3.26,21.77-.17,25.92-8.17,3.24-6.24,5.68-11.14,8.05-15.88,4.8-9.62,9.76-19.57,21.64-41.35,3.69-6.76,4.71-11.63,2.75-13.05-1.26-.91-3.65-.44-5.96,.01-2.55,.5-4.96,.97-6.24-.27-.85-.82-.62-1.83-.37-2.91,.24-1.02,.5-2.18,.11-3.65-.59-2.22-2.51-4.38-5.7-6.42-4.16,1.3-7.96,1.36-11.29,.17-2.62-.93-4.18-2.36-5.56-3.62-1.37-1.25-2.55-2.32-4.43-2.54-1.74-.21-2.62,.47-4.08,1.57-1.36,1.02-3.21,2.42-6.57,3.58-2.71,.93-7.26,2.5-12.28,1.18-2.48-.65-4.27-1.8-5.58-2.64-1.16-.74-2-1.28-2.6-1.06-.7,.26-.63,1.43-.43,3.19,.22,2.01,.48,4.29-1.26,5.29-1.38,.79-3.02,.13-4.61-.51-1.38-.56-2.82-1.14-4.13-.84-2.86,.65-2.82,5.12-2.76,11.88,.06,6.67,.14,15.8-2.83,25.36-.17,.53-.31,.98-.45,1.39-.35,1.06-.6,1.83-.85,3.16-1.65,8.72,1.79,16.42,4.31,22.04,.22,.5,.44,.98,.64,1.45,.24,.55,.48,1.12,.74,1.71,2.85,6.67,6.75,15.81,16.67,18.79l7.15,2.15Z"/></g><g><path class="cls-6" d="M152.82,449.1c-1.59-.73-3.19-1.47-4.78-2.2-7.36-3.4-8.17-12.8-9.1-18.66-.63-3.97-1.39-11.37,.59-20.58,3.06-14.25,9.01-15.97,10.09-27.76,.12-1.26,.36-4.63,2.55-7.94,.17-.26,4.16-6.13,8.73-5.55,2.61,.33,2.5,2.4,5.44,3.58,5.64,2.27,11.54-3.12,13.5-1.03,1.39,1.48-.75,5.09,.17,5.6,1.22,.68,4.56-6.02,8.46-5.89,2.72,.09,4.95,3.47,6.62,7.19,.71,2.57,2.16,6.18,5.34,7.62,3.74,1.69,7.35-.76,8.73,.81,2.05,2.32-3.45,10.29-4.29,11.52-18.57,26.99-21.15,31.86-31.5,47.46-4.48,6.74-13.2,9.22-20.55,5.83Z"/><path class="cls-11" d="M159.74,451.07c-2.38,0-4.8-.51-7.11-1.57l-4.78-2.2c-6.98-3.22-8.22-11.47-9.12-17.5-.08-.52-.15-1.02-.23-1.5-1.09-6.84-.89-13.82,.6-20.74,1.5-6.96,3.7-11,5.64-14.57,2.09-3.83,3.89-7.15,4.44-13.14v-.13c.14-1.41,.44-4.72,2.62-8.01,.17-.26,4.28-6.36,9.16-5.74,1.54,.2,2.24,.94,2.98,1.73,.63,.67,1.28,1.36,2.57,1.88,2.96,1.19,6.07,.14,8.57-.71,2.15-.73,4.02-1.36,5.09-.22,.94,1,.57,2.66,.27,3.99-.12,.54-.3,1.37-.19,1.54,.26-.02,1.18-1.03,1.85-1.77,1.63-1.8,3.83-4.25,6.39-4.19,2.5,.08,4.79,2.52,7.01,7.45,1.08,3.88,2.79,6.34,5.12,7.39,1.86,.84,3.67,.6,5.27,.38,1.5-.2,2.8-.38,3.61,.53,1.88,2.12-1.27,7.72-4.25,12.04-12.42,18.05-17.75,26.31-22.9,34.29-2.54,3.94-5.17,8.01-8.61,13.19-3.23,4.86-8.51,7.56-14,7.56Zm-6.74-2.37c7.2,3.32,15.61,.94,20-5.67,3.43-5.17,6.06-9.24,8.6-13.18,5.16-7.99,10.49-16.25,22.9-34.29,3.79-5.51,5.45-9.71,4.33-10.98-.5-.56-1.53-.42-2.83-.25-1.63,.22-3.66,.49-5.75-.45-2.58-1.17-4.45-3.82-5.58-7.9-2.02-4.47-4.11-6.8-6.21-6.87-2.11-.06-4.2,2.22-5.71,3.9-1.3,1.43-2.15,2.39-2.95,1.94-.69-.38-.47-1.36-.22-2.49,.25-1.13,.56-2.54-.06-3.2-.68-.73-2.22-.21-4.16,.45-2.63,.89-5.91,2-9.18,.69-1.48-.59-2.22-1.39-2.88-2.1-.68-.73-1.22-1.3-2.45-1.46-4.35-.56-8.27,5.29-8.31,5.35-2.05,3.11-2.34,6.26-2.46,7.61v.13c-.58,6.17-2.42,9.56-4.56,13.48-1.91,3.51-4.08,7.49-5.55,14.33-1.46,6.82-1.66,13.68-.59,20.42,.08,.48,.15,.98,.23,1.5,.87,5.83,2.07,13.81,8.62,16.83l4.78,2.2Z"/></g><g><path class="cls-10" d="M158.35,450.51c-1.59-.73-3.19-1.47-4.78-2.2-7.36-3.4-8.17-12.8-9.1-18.66-.37-2.34-1.12-8.04,.59-20.58,2.91-21.28,8.61-30.74,12.64-35.7,4.02-4.95,6.8-5.92,8.73-5.55,2.32,.45,2.48,2.65,5.44,3.58,3.69,1.16,5.61-1.57,8.88-.38,2.92,1.06,2.2,4.02,4.79,4.95,2.88,1.04,4.99-1.99,10.13-3.01,3.3-.65,6.2-.16,8.13,.37-.57,4.08-.8,9.62,2.16,11.56,2.95,1.94,7.22-.9,8.73,.81,2.05,2.32-3.45,10.29-4.29,11.52-18.57,26.99-21.15,31.86-31.5,47.46-4.48,6.74-13.2,9.22-20.55,5.83Z"/><path class="cls-11" d="M165.27,452.48c-2.38,0-4.8-.51-7.11-1.57l-4.78-2.2c-6.98-3.22-8.22-11.47-9.12-17.5-.08-.52-.15-1.02-.23-1.5-.3-1.87-1.21-7.56,.59-20.71,2.24-16.38,6.41-28.13,12.73-35.91,3.53-4.35,6.53-6.22,9.16-5.7,1.27,.25,1.97,.98,2.66,1.69,.7,.72,1.42,1.47,2.83,1.91,1.74,.55,3.03,.18,4.39-.22,1.35-.39,2.76-.8,4.51-.16,1.67,.61,2.28,1.79,2.81,2.83,.48,.93,.89,1.73,1.97,2.12,1.43,.52,2.68-.11,4.42-.98,1.4-.71,3.15-1.58,5.48-2.05,2.66-.53,5.46-.4,8.33,.38l.37,.1-.05,.38c-.83,5.98-.17,9.73,1.96,11.13,1.41,.93,3.24,.64,4.85,.38,1.59-.25,3.09-.49,3.97,.5,1.88,2.12-1.27,7.72-4.25,12.04-12.42,18.05-17.75,26.3-22.9,34.28-2.54,3.94-5.17,8.01-8.61,13.19-3.23,4.86-8.52,7.56-14,7.56Zm.4-84.29c-2.13,0-4.69,1.83-7.63,5.46-6.22,7.66-10.32,19.26-12.54,35.48-1.78,13.01-.89,18.61-.59,20.45,.08,.48,.15,.98,.23,1.5,.88,5.83,2.07,13.81,8.62,16.83l4.78,2.2c7.2,3.32,15.61,.94,20-5.67,3.43-5.17,6.06-9.24,8.6-13.18,5.16-7.99,10.49-16.25,22.9-34.29,3.79-5.51,5.44-9.71,4.33-10.98-.55-.63-1.77-.44-3.17-.21-1.77,.28-3.78,.6-5.47-.52-2.4-1.57-3.21-5.48-2.41-11.6-2.6-.65-5.14-.74-7.55-.26-2.22,.44-3.83,1.25-5.26,1.97-1.86,.93-3.32,1.67-5.11,1.02-1.41-.51-1.95-1.55-2.46-2.55-.5-.99-.98-1.92-2.33-2.4-1.48-.54-2.63-.2-3.96,.18-1.36,.39-2.9,.84-4.9,.21-1.63-.51-2.46-1.37-3.2-2.14-.67-.69-1.2-1.24-2.19-1.43-.22-.04-.44-.06-.67-.06Z"/></g><g><path class="cls-6" d="M182.08,465.7c1.71,1.18,3.42,2.36,5.13,3.53,7.91,5.45,17.98,.58,24.51-2.01,5.59-2.22,14.11-5.05,20.6-13.05,1.26-1.56,1.7-2.37,2.87-4.13,11.77-17.56,27.83-24.86,25.84-30.33-.95-2.6-5.17-2.55-5.28-5.08-.14-3.11,6.12-4.97,5.65-7.17-.34-1.59-3.67-.9-6.94-3.37-3.37-2.55-4.37-6.71-4.98-9.28-1.54-6.43,.79-8.93-1.34-11.23-2.28-2.47-5.71-.43-9.66-2.79-3.25-1.94-4.63-5.55-5.29-8.05-2.41-.66-5.52-1.04-8.16,.46-2.84,1.62-3.29,4.37-4.92,4.33-2.74-.07-3.16-7.84-6.1-8.4-3.61-.69-8.39,9.73-9.13,11.34-16.26,35.24-19.66,40.8-29.29,60.78-4.16,8.64-1.41,19.02,6.49,24.45Z"/><path class="cls-11" d="M195.57,472.16c-2.96,0-5.89-.7-8.6-2.56l-5.13-3.53c-8.13-5.6-10.92-16.11-6.64-25.01,3.19-6.63,5.75-11.76,8.22-16.73,5.01-10.08,10.2-20.5,21.06-44.04,2.13-4.62,6.19-12.25,9.62-11.58,1.71,.33,2.6,2.53,3.45,4.66,.74,1.82,1.5,3.71,2.58,3.74h.02c.56,0,.97-.5,1.64-1.39,.69-.91,1.54-2.04,3.03-2.88,2.23-1.27,5.09-1.44,8.49-.51l.25,.07,.06,.25c.98,3.73,2.69,6.35,5.09,7.79,1.84,1.1,3.59,1.2,5.14,1.29,1.71,.1,3.33,.19,4.61,1.58,1.23,1.33,1.13,2.76,1,4.58-.12,1.7-.27,3.81,.45,6.85,.59,2.46,1.57,6.57,4.82,9.03,1.59,1.21,3.2,1.63,4.48,1.96,1.34,.35,2.4,.63,2.62,1.67,.28,1.31-1.12,2.37-2.61,3.49-1.45,1.09-3.09,2.33-3.03,3.75,.05,1.07,1.06,1.61,2.24,2.23,1.17,.62,2.5,1.32,3.01,2.73,1.11,3.04-2.52,6.3-8.03,11.24-5.09,4.57-12.06,10.83-17.86,19.48-.32,.48-.59,.89-.83,1.27-.63,.98-1.14,1.75-2.06,2.89-6.03,7.44-13.74,10.44-19.36,12.63l-1.41,.55c-.53,.21-1.09,.44-1.66,.67-4.24,1.73-9.48,3.86-14.65,3.86Zm-13.24-6.82l5.13,3.53c7.07,4.87,15.95,1.25,22.43-1.39,.58-.24,1.14-.46,1.67-.67l1.42-.56c5.53-2.15,13.11-5.1,19-12.36,.9-1.11,1.37-1.83,2.01-2.82,.25-.38,.51-.79,.84-1.28,5.86-8.74,12.88-15.04,18-19.65,5.05-4.53,8.69-7.81,7.79-10.28-.4-1.09-1.52-1.68-2.6-2.25-1.3-.68-2.64-1.39-2.71-2.97-.08-1.88,1.76-3.26,3.38-4.49,1.2-.91,2.44-1.84,2.28-2.6-.1-.49-.75-.68-1.98-1-1.29-.34-3.06-.8-4.79-2.11-3.5-2.64-4.53-6.95-5.14-9.52-.76-3.17-.59-5.45-.47-7.12,.13-1.79,.21-2.87-.77-3.92-1.05-1.13-2.36-1.21-4.02-1.3-1.65-.09-3.52-.2-5.54-1.41-2.55-1.53-4.37-4.24-5.42-8.07-3.06-.8-5.61-.63-7.58,.49-1.33,.76-2.1,1.76-2.77,2.65-.72,.95-1.38,1.72-2.39,1.74-1.66-.04-2.49-2.11-3.37-4.29-.77-1.91-1.57-3.89-2.8-4.12-2.02-.38-5.26,3.75-8.64,11.06-10.88,23.58-16.07,34.01-21.09,44.09-2.47,4.97-5.03,10.1-8.22,16.72-4.1,8.5-1.43,18.55,6.34,23.9h0Z"/></g><g><path class="cls-10" d="M179.99,463.78c1.44,.99,2.89,1.99,4.33,2.98,6.68,4.6,15.12,.57,20.6-1.57,2.19-.85,7.44-3.07,17.26-10.82,16.67-13.16,21.82-22.78,23.98-28.7,2.16-5.93,1.56-8.79,.25-10.25-1.58-1.75-3.53-.79-5.85-2.86-2.88-2.58-1.54-5.59-4.23-7.79-2.41-1.97-4.56,.13-6.69-1.61-2.37-1.94-.86-5.27-2.63-10.18-1.14-3.15-3.05-5.38-4.49-6.77-3.19,2.53-7.8,5.51-10.98,3.95-3.17-1.55-2.94-6.63-5.17-7.06-3.04-.59-7.01,8.11-7.63,9.45-13.51,29.42-16.34,34.06-24.34,50.74-3.46,7.21-1.09,15.91,5.58,20.5Z"/><path class="cls-11" d="M191.45,469.32c-2.53,0-5.05-.6-7.38-2.2l-4.33-2.98c-6.89-4.74-9.3-13.6-5.72-21.05,2.65-5.53,4.78-9.82,6.84-13.97,4.17-8.41,8.48-17.11,17.5-36.76,2.17-4.73,5.32-10.23,8.11-9.69,1.29,.25,1.86,1.66,2.46,3.14,.61,1.51,1.3,3.22,2.82,3.96,2.29,1.12,5.83-.19,10.51-3.9l.3-.24,.28,.27c2.13,2.06,3.68,4.4,4.6,6.94,.8,2.23,.95,4.16,1.07,5.72,.15,1.92,.25,3.31,1.43,4.27,.89,.73,1.79,.68,2.83,.63,1.16-.06,2.48-.14,3.86,.99,1.44,1.18,1.81,2.58,2.18,3.94,.36,1.36,.71,2.65,2.07,3.86,1.1,.99,2.11,1.23,3.08,1.47,.96,.23,1.94,.47,2.8,1.43,1.79,1.99,1.74,5.49-.16,10.7-3.4,9.31-11.29,18.77-24.12,28.9-10.3,8.13-15.62,10.2-17.37,10.89-.45,.17-.91,.36-1.39,.55-3.54,1.42-7.91,3.17-12.24,3.17Zm14.63-85.82c-1.67,0-4.29,3.47-6.92,9.2-9.04,19.69-13.35,28.39-17.52,36.8-2.05,4.15-4.18,8.43-6.83,13.96-3.39,7.06-1.1,15.45,5.43,19.95l4.33,2.98c5.94,4.09,13.37,1.11,18.79-1.06,.49-.19,.95-.38,1.4-.56,1.72-.67,6.95-2.71,17.15-10.76,12.7-10.03,20.5-19.35,23.84-28.51,1.75-4.8,1.87-8.1,.34-9.81-.68-.75-1.42-.93-2.35-1.16-1.03-.25-2.19-.53-3.46-1.66-1.56-1.39-1.97-2.93-2.33-4.29-.36-1.33-.66-2.48-1.88-3.48-1.11-.91-2.15-.85-3.25-.79-1.12,.06-2.28,.13-3.44-.82-1.47-1.2-1.59-2.83-1.75-4.88-.12-1.58-.26-3.37-1.02-5.49-.83-2.3-2.21-4.43-4.11-6.33-4.82,3.75-8.57,5.02-11.14,3.76-1.82-.89-2.58-2.77-3.25-4.42-.53-1.31-.99-2.45-1.82-2.61-.07-.01-.14-.02-.22-.02Z"/></g><g><path class="cls-6" d="M175.11,462.04c1.44,.99,2.89,1.99,4.33,2.98,6.68,4.6,15.12,.57,20.6-1.57,2.19-.85,7.44-3.07,17.26-10.82,16.67-13.16,21.82-22.78,23.98-28.7,2.16-5.93,1.56-8.79,.25-10.25-1.58-1.75-3.53-.79-5.85-2.86-2.88-2.58-1.54-5.59-4.23-7.79-2.41-1.97-4.56,.13-6.69-1.61-2.37-1.94-.86-5.27-2.63-10.18-1.14-3.15-3.05-5.38-4.49-6.77-3.19,2.53-7.8,5.51-10.98,3.95-3.17-1.55-2.94-6.63-5.17-7.06-3.04-.59-7.01,8.11-7.63,9.45-13.51,29.42-16.34,34.06-24.34,50.74-3.46,7.21-1.09,15.91,5.58,20.5Z"/><path class="cls-11" d="M186.57,467.59c-2.53,0-5.04-.6-7.38-2.2l-4.33-2.98c-6.89-4.74-9.3-13.6-5.72-21.05,2.65-5.53,4.78-9.82,6.84-13.97,4.17-8.41,8.48-17.11,17.5-36.76,2.17-4.74,5.35-10.22,8.11-9.69,1.29,.25,1.86,1.66,2.46,3.14,.61,1.51,1.3,3.22,2.82,3.96,2.3,1.12,5.83-.19,10.51-3.9l.3-.24,.28,.27c2.13,2.06,3.68,4.39,4.6,6.94,.8,2.23,.95,4.16,1.07,5.72,.15,1.92,.25,3.31,1.43,4.27,.9,.73,1.79,.68,2.83,.63,1.17-.07,2.48-.14,3.86,.99,1.44,1.18,1.81,2.58,2.18,3.94,.36,1.36,.71,2.65,2.07,3.86,1.1,.99,2.11,1.23,3.08,1.47,.95,.23,1.94,.47,2.8,1.43,1.79,1.99,1.74,5.49-.16,10.7-3.4,9.31-11.29,18.77-24.12,28.9-10.3,8.13-15.62,10.2-17.37,10.89-.45,.17-.91,.36-1.39,.55-3.54,1.42-7.91,3.17-12.24,3.17Zm-11.21-5.91l4.33,2.98c5.94,4.09,13.37,1.11,18.79-1.06,.49-.19,.95-.38,1.4-.56,1.72-.67,6.96-2.71,17.15-10.76,12.7-10.03,20.5-19.35,23.84-28.51,1.75-4.8,1.86-8.1,.33-9.81-.68-.75-1.42-.93-2.35-1.16-1.03-.25-2.19-.53-3.46-1.66-1.56-1.39-1.97-2.93-2.33-4.29-.36-1.33-.66-2.48-1.88-3.48-1.11-.91-2.15-.85-3.25-.79-1.12,.06-2.28,.13-3.44-.82-1.47-1.2-1.59-2.83-1.75-4.88-.12-1.58-.26-3.37-1.02-5.49-.83-2.3-2.21-4.43-4.11-6.33-4.82,3.76-8.57,5.02-11.14,3.76-1.82-.89-2.58-2.77-3.25-4.42-.53-1.31-.99-2.45-1.81-2.61-1.65-.32-4.38,3.19-7.13,9.17-9.04,19.69-13.35,28.39-17.52,36.81-2.05,4.15-4.18,8.43-6.83,13.96-3.39,7.06-1.1,15.45,5.43,19.95h0Z"/></g><g><path class="cls-4" d="M164.27,457.57l4.03,1.98c2.77,1.36,7.54,1.05,17.64-4.87,5.15-3.01,11-6.45,17.34-13.45,0,0,10.2-11.26,14.46-29.26,.61-2.57,1.51-7.35-.77-9.33-1.53-1.33-3.13-.12-5.33-1.61-2.74-1.85-1.87-4.8-4.4-6.35-2.27-1.38-3.93,.88-5.93-.34-2.23-1.36-1.25-4.63-3.25-8.78-1.28-2.66-3.15-4.36-4.53-5.38-2.51,2.82-6.2,6.29-9.1,5.41-2.88-.87-3.17-5.51-5.14-5.53-2.31-.02-4.26,5.95-5.68,9.83-4.97,13.65-7.21,11.3-11.59,23.42-2.04,5.65-5.26,14.85-4.54,26.62,.79,12.98,5.5,17.01,6.79,17.64Z"/><path class="cls-11" d="M171.42,460.64c-1.27,0-2.37-.24-3.32-.7l-4.03-1.98c-.25-.12-6.12-3.17-7.03-18.01-.74-12.1,2.71-21.66,4.57-26.79,2.15-5.95,3.77-8.41,5.48-11.02,1.76-2.68,3.58-5.44,6.11-12.4l.34-.95c1.47-4.09,3.3-9.18,5.73-9.18h.02c1.19,.01,1.83,1.21,2.51,2.48,.66,1.25,1.42,2.67,2.76,3.07,2.03,.61,5.02-1.21,8.64-5.28l.27-.3,.32,.24c2.05,1.52,3.62,3.38,4.66,5.54,.91,1.89,1.22,3.62,1.48,5.01,.31,1.7,.53,2.93,1.61,3.58,.81,.49,1.56,.31,2.44,.08,1.01-.26,2.16-.55,3.49,.26,1.38,.84,1.84,2.06,2.29,3.24,.44,1.16,.86,2.26,2.13,3.12,1.03,.69,1.91,.75,2.76,.79,.86,.05,1.75,.1,2.61,.85,1.8,1.56,2.1,4.75,.91,9.76-4.23,17.9-14.46,29.34-14.56,29.46-6.39,7.05-12.26,10.49-17.45,13.53-6.41,3.75-11.21,5.59-14.73,5.59Zm7.86-80.14c-1.81,0-3.67,5.17-4.9,8.6l-.34,.95c-2.57,7.06-4.42,9.87-6.2,12.59-1.68,2.56-3.28,4.98-5.39,10.83-1.83,5.07-5.24,14.52-4.51,26.44,.88,14.33,6.48,17.24,6.54,17.27h0l4.03,1.98c3.32,1.63,8.79,.09,17.22-4.85,5.13-3.01,10.94-6.41,17.24-13.36,.1-.11,10.18-11.4,14.36-29.07,1.09-4.6,.87-7.59-.63-8.9-.63-.55-1.27-.59-2.09-.63-.92-.05-1.97-.12-3.2-.94-1.5-1.01-2.01-2.35-2.46-3.54-.43-1.13-.8-2.11-1.93-2.8-1.01-.62-1.89-.4-2.81-.16-.93,.24-1.99,.51-3.11-.18-1.41-.86-1.68-2.33-2.02-4.18-.26-1.41-.55-3-1.4-4.79-.92-1.92-2.29-3.59-4.07-4.97-3.8,4.19-6.92,5.96-9.28,5.24-1.69-.51-2.54-2.1-3.28-3.5-.57-1.08-1.07-2.01-1.74-2.01h-.01Z"/></g><g><path class="cls-10" d="M168.5,455.81l-3.67-2.58c-2.52-1.78-4.54-6.11-4.2-17.81,.17-5.96,.37-12.75,3.46-21.67,0,0,4.98-14.36,18.72-26.74,1.96-1.76,5.72-4.86,8.55-3.8,1.9,.7,1.61,2.68,3.97,3.9,2.94,1.51,5.11-.67,7.68,.81,2.3,1.32,1.11,3.87,3.15,5.03,2.27,1.3,4.66-1.12,9.26-1.36,2.95-.15,5.34,.67,6.89,1.38-1.27,3.56-2.54,8.46-.38,10.58,2.15,2.11,6.36,.14,7.32,1.85,1.13,2.01-3.17,6.59-5.9,9.7-9.58,10.91-6.44,11.75-14.97,21.42-3.98,4.5-10.49,11.75-21.16,16.77-11.76,5.54-17.56,3.35-18.73,2.52Z"/><path class="cls-11" d="M173.69,457.38c-3.66,0-5.33-1.13-5.45-1.21l-3.67-2.58c-3.29-2.31-4.68-8.09-4.39-18.18,.17-6.01,.37-12.81,3.49-21.8,.05-.14,5.17-14.61,18.84-26.92,3.83-3.45,6.77-4.72,9-3.89,1.07,.4,1.54,1.15,2,1.88,.45,.72,.92,1.47,2.02,2.03,1.36,.7,2.53,.54,3.76,.37,1.25-.17,2.54-.35,3.94,.45,1.35,.78,1.64,1.92,1.9,2.94,.22,.87,.42,1.62,1.24,2.1,1.09,.63,2.28,.23,3.92-.31,1.34-.45,3.01-1,5.11-1.11,2.4-.13,4.78,.35,7.1,1.43l.37,.17-.14,.38c-1.84,5.13-2,8.63-.49,10.12,1,.98,2.61,.96,4.02,.95,1.44-.02,2.79-.03,3.38,1.01,1.19,2.13-2.4,6.19-5.29,9.45l-.66,.75c-4.89,5.56-6.44,8.49-7.94,11.32-1.46,2.76-2.85,5.36-7.03,10.1-3.61,4.09-10.34,11.71-21.31,16.87-6.15,2.89-10.64,3.7-13.72,3.7Zm16.44-73.95c-1.78,0-4.14,1.31-7.02,3.91-13.5,12.16-18.55,26.41-18.6,26.55-3.07,8.86-3.27,15.6-3.44,21.54-.28,9.77,.99,15.31,4.01,17.43l3.67,2.58c.05,.04,5.3,3.56,18.29-2.56,10.8-5.08,17.45-12.61,21.02-16.66,4.12-4.66,5.47-7.22,6.91-9.93,1.53-2.87,3.1-5.84,8.06-11.49l.67-.76c2.42-2.73,6.07-6.86,5.18-8.44-.33-.59-1.38-.57-2.6-.56-1.59,.02-3.38,.04-4.65-1.2-1.77-1.73-1.72-5.31,.14-10.66-2.07-.9-4.2-1.29-6.32-1.18-1.98,.1-3.52,.62-4.87,1.07-1.78,.59-3.19,1.06-4.63,.24-1.15-.66-1.42-1.71-1.66-2.64-.24-.93-.46-1.8-1.49-2.39-1.14-.66-2.18-.51-3.38-.35-1.25,.17-2.67,.37-4.28-.46-1.32-.68-1.87-1.57-2.36-2.35-.43-.69-.77-1.23-1.56-1.53-.33-.12-.69-.19-1.08-.19Z"/></g><g><path class="cls-4" d="M174.76,462.48c-.61-.44-1.02-.62-2.94-2.1-7.48-5.76-11.23-8.67-11.75-10.04-1.97-5.13,3.48-11.72,5.47-13.94,0,0,1.38-7.96,9.19-13.43,1.11-.78,3.29-2.1,5.43-1.05,1.43,.7,1.52,1.86,3.35,2.94,2.28,1.34,3.48,.34,5.49,1.61,1.8,1.14,1.34,2.5,2.94,3.5,1.78,1.12,3.1,0,6.28,.53,2.04,.34,3.83,1.18,5.02,1.84-.37,1.96-.54,4.75,1.28,6.34,1.81,1.59,4.47,1.01,5.4,2.19,1.08,1.38-1.25,3.52-2.71,5.01-5.11,5.2-2.79,6.17-7.35,10.76-2.12,2.14-5.63,5.57-12.36,7.05-7.42,1.63-11.8-.54-12.74-1.21Z"/><path class="cls-11" d="M182.27,464.73c-5.03,0-7.62-1.79-7.76-1.89-.17-.12-.32-.22-.5-.34-.45-.3-1.07-.7-2.46-1.77-8.05-6.2-11.34-8.78-11.9-10.23-1.89-4.93,2.57-11.04,5.47-14.3,.22-1.09,1.93-8.39,9.35-13.59,2.21-1.55,4.19-1.91,5.88-1.09,.78,.38,1.2,.88,1.64,1.4,.43,.51,.87,1.04,1.74,1.55,1.07,.63,1.85,.7,2.69,.78,.85,.08,1.73,.16,2.82,.84,1.03,.65,1.4,1.38,1.73,2.03,.29,.56,.53,1.05,1.2,1.47,.87,.55,1.59,.49,2.68,.39,.88-.07,1.98-.17,3.44,.07,1.66,.27,3.4,.91,5.17,1.89l.28,.15-.06,.31c-.53,2.81-.15,4.8,1.14,5.93,.87,.76,1.99,.98,2.98,1.18,.99,.2,1.93,.38,2.47,1.07,1.24,1.58-.86,3.69-2.39,5.23l-.35,.36c-2.57,2.61-3.21,4.13-3.84,5.59-.61,1.42-1.23,2.88-3.51,5.17-1.95,1.97-5.58,5.63-12.58,7.17-2,.44-3.78,.61-5.33,.61Zm-7.25-2.61s4.23,2.93,12.39,1.14c6.74-1.48,10.25-5.02,12.14-6.93,2.16-2.18,2.72-3.5,3.32-4.9,.66-1.54,1.34-3.13,4.02-5.86l.36-.36c1.3-1.31,3.08-3.1,2.32-4.06-.34-.43-1.08-.58-1.94-.75-1.1-.22-2.35-.47-3.39-1.38-1.48-1.3-1.98-3.47-1.48-6.44-1.59-.85-3.13-1.4-4.61-1.65-1.35-.23-2.35-.14-3.22-.07-1.13,.1-2.11,.18-3.22-.52-.87-.55-1.2-1.2-1.52-1.82-.3-.6-.59-1.16-1.42-1.69-.91-.57-1.61-.64-2.43-.71-.85-.08-1.82-.17-3.06-.9-1-.59-1.52-1.2-1.97-1.74-.41-.49-.74-.88-1.35-1.18-1.4-.69-3.03-.36-4.98,1.02-7.55,5.3-9,13.07-9.01,13.15l-.02,.12-.08,.09c-2.22,2.49-7.2,8.78-5.39,13.49,.49,1.28,4.68,4.51,11.61,9.85,1.36,1.05,1.96,1.45,2.4,1.73,.19,.12,.35,.23,.53,.36Z"/></g><g><path class="cls-10" d="M171.91,464.57c-7.48-1.91-29.09-8.62-38.02-29.81-6.73-15.97-4.55-36.11-2.69-36.75,.68-.23,1.34,2.1,2.46,4.5,5.57,11.99,17.75,15.78,22.75,18.41,7.8,4.1,15.81,14.65,15.5,43.65Z"/><path class="cls-11" d="M172.34,465.13l-.54-.14c-10.74-2.75-29.99-10.3-38.32-30.07-6.21-14.74-4.82-32.84-3.21-36.42,.23-.52,.48-.81,.79-.92,.87-.3,1.36,.86,2.16,2.79,.25,.61,.53,1.27,.84,1.94,4.61,9.93,14.03,14.25,19.66,16.82,1.12,.51,2.09,.96,2.9,1.38,10.7,5.62,15.99,20.44,15.73,44.04v.56Zm-41.05-66.67c-1.43,1.34-3.72,20.2,2.99,36.12,8.04,19.09,26.51,26.6,37.18,29.41,.17-22.91-4.97-37.28-15.27-42.69-.79-.41-1.75-.85-2.86-1.36-5.74-2.63-15.34-7.03-20.09-17.26-.32-.68-.6-1.36-.85-1.98-.37-.9-.83-2-1.1-2.25Z"/></g></g><g><g><path class="cls-9" d="M122.74,356.56c1.2,18.98-1.36,33.54-4.57,33.84-1.12,.1-2.03-1.57-4.95-1.82-2.3-.2-3.21,.71-4.2,.57-3.61-.51-6.7-14.53-4.58-32.58,.98-8.33,4.34-28.36,9.15-28.35,4.38,0,8.36,15.98,9.15,28.35Z"/><path class="cls-11" d="M118.07,391.1c-.63,0-1.16-.33-1.72-.68-.73-.45-1.65-1.02-3.18-1.15-1.21-.11-1.97,.12-2.64,.33-.53,.16-1.03,.31-1.6,.23-4.69-.66-7.15-16.56-5.18-33.36,.35-2.97,3.59-28.98,9.84-28.98h0c5.66,0,9.21,18.9,9.85,29.01,1.03,16.31-.66,34.17-5.21,34.58-.06,0-.11,0-.16,0Zm-5.49-3.27c.22,0,.46,0,.71,.03,1.87,.16,2.98,.85,3.8,1.36,.44,.27,.78,.49,1.02,.46,2.03-.19,5.26-12.04,3.93-33.09h0c-.87-13.71-5.13-27.69-8.45-27.69h0c-3.25,0-6.84,14.1-8.44,27.73-2.21,18.76,1.37,31.43,3.98,31.8,.26,.03,.57-.06,.99-.19,.59-.18,1.37-.41,2.47-.41Z"/></g><g><path class="cls-9" d="M142.77,367.34c-7.96,17.28-17.13,28.87-20.09,27.61-1.04-.44-1.04-2.34-3.49-3.95-1.93-1.27-3.16-.9-3.97-1.5-2.94-2.17,1.01-15.97,11.45-30.84,4.82-6.86,17.29-22.89,21.52-20.61,3.86,2.09-.23,18.04-5.42,29.3Z"/><path class="cls-11" d="M123.14,395.74c-.27,0-.51-.05-.75-.15-.65-.28-.99-.86-1.34-1.49-.43-.75-.97-1.68-2.25-2.53-1.02-.67-1.8-.83-2.48-.97-.54-.11-1.06-.21-1.52-.55-3.81-2.81,1.57-17.97,11.29-31.81,1.72-2.44,16.93-23.81,22.43-20.82,4.98,2.69-.88,21.01-5.12,30.21h0c-6.46,14.02-15.72,28.11-20.26,28.11Zm24.06-57.23c-3.49,0-12.59,10.04-19.96,20.54-10.85,15.46-13.72,28.31-11.61,29.87,.21,.15,.52,.22,.96,.31,.73,.15,1.73,.35,2.98,1.17,1.57,1.03,2.22,2.17,2.7,3,.26,.45,.46,.8,.68,.89,1.86,.81,10.35-8.09,19.18-27.25h0c5.75-12.48,8.64-26.8,5.72-28.38-.19-.1-.4-.15-.64-.15Z"/></g><g><path class="cls-9" d="M155.45,388.32c-15.84,10.53-29.73,15.59-31.59,12.96-.65-.92,.35-2.54-.89-5.19-.98-2.09-2.22-2.42-2.59-3.36-1.36-3.38,9.23-13.06,25.93-20.25,7.7-3.32,26.73-10.42,29.13-6.25,2.19,3.8-9.66,15.23-19.98,22.1Z"/><path class="cls-11" d="M125.95,402.66c-1.27,0-2.19-.31-2.67-.98-.41-.58-.39-1.25-.36-1.97,.03-.86,.06-1.94-.59-3.33-.51-1.1-1.09-1.65-1.61-2.13-.4-.38-.79-.74-1-1.27-1.77-4.39,10.77-14.47,26.3-21.16,2.74-1.18,26.89-11.39,30.02-5.96,2.82,4.91-11.77,17.42-20.21,23.04h0c-11.15,7.41-24.12,13.76-29.89,13.76Zm45.98-37.03c-5.07,0-15.62,3.3-25.35,7.48-17.35,7.47-26.54,16.9-25.55,19.34,.1,.24,.33,.46,.66,.77,.54,.51,1.29,1.21,1.92,2.56,.79,1.7,.75,3.01,.72,3.97-.02,.52-.03,.92,.11,1.12,1.18,1.67,13.05-1.46,30.62-13.14,11.44-7.61,21.42-18.29,19.76-21.16-.37-.64-1.39-.93-2.89-.93Z"/></g><g><path class="cls-9" d="M154.55,417.49c-19-.91-33.19-5.07-33.12-8.29,.02-1.13,1.78-1.84,2.36-4.71,.45-2.26-.35-3.27-.1-4.24,.91-3.53,15.18-5.05,32.89-.93,8.17,1.9,27.7,7.46,27.16,12.24-.49,4.36-16.81,6.54-29.19,5.94Z"/><path class="cls-11" d="M158.45,418.29c-1.41,0-2.73-.03-3.93-.09h0c-16.32-.78-33.88-4.45-33.79-9.01,.01-.71,.43-1.24,.88-1.8,.53-.68,1.2-1.52,1.5-3.03,.24-1.19,.09-1.97-.03-2.66-.1-.55-.2-1.06-.05-1.62,1.17-4.58,17.25-5.27,33.73-1.44,2.91,.68,28.41,6.78,27.7,13-.56,4.96-15.52,6.66-26,6.66Zm-3.86-1.5c13.73,.67,28.09-2.03,28.46-5.32,.36-3.23-13.25-8.37-26.62-11.47-18.4-4.27-31.39-2.13-32.04,.42-.07,.25,0,.57,.07,1.01,.14,.73,.32,1.74,.03,3.2-.37,1.84-1.18,2.87-1.77,3.63-.32,.41-.57,.73-.57,.96-.04,2.04,11.38,6.56,32.45,7.57h0Z"/></g><g><path class="cls-9" d="M121.81,441.82c-8.2-17.17-11.25-31.63-8.38-33.1,1-.51,2.46,.7,5.27-.15,2.21-.67,2.71-1.85,3.69-2.09,3.54-.87,11.63,10.98,16.4,28.52,2.2,8.09,6.55,27.93,2.09,29.72-4.07,1.63-13.72-11.71-19.06-22.9Z"/><path class="cls-11" d="M140.13,465.56c-5.48,0-14.86-14.84-18.96-23.44-7.04-14.75-12.13-31.95-8.07-34.03,.63-.32,1.3-.21,2-.08,.85,.15,1.91,.33,3.38-.12,1.16-.35,1.78-.85,2.33-1.29,.43-.35,.84-.68,1.4-.81,4.6-1.13,12.81,12.7,17.24,29.02,.78,2.88,7.48,28.23,1.67,30.56-.32,.13-.65,.19-1,.19Zm-26.09-56.27c-.12,0-.22,.02-.3,.06-1.82,.93-.4,13.13,8.69,32.17h0c5.92,12.4,15.09,23.79,18.16,22.55,3.01-1.21,1.09-15.63-2.5-28.88-4.95-18.23-13.01-28.66-15.55-28.02-.25,.06-.5,.26-.85,.54-.58,.47-1.38,1.11-2.8,1.54-1.8,.54-3.09,.32-4.03,.16-.32-.06-.61-.11-.82-.11Z"/></g><g><path class="cls-9" d="M137.65,431.38c-15.62-10.85-25.44-21.91-23.67-24.6,.62-.94,2.49-.61,4.5-2.74,1.58-1.68,1.44-2.95,2.17-3.65,2.64-2.51,15.54,3.78,28.37,16.66,5.92,5.94,19.52,21.02,16.53,24.78-2.73,3.43-17.72-3.38-27.9-10.45Z"/><path class="cls-11" d="M162.86,443.46c-6.34,0-18.84-6.8-25.61-11.5h0c-13.42-9.33-26.36-21.75-23.86-25.57,.39-.59,1.02-.82,1.7-1.06,.81-.29,1.82-.66,2.88-1.78,.84-.88,1.13-1.62,1.38-2.27,.2-.52,.4-1,.81-1.4,3.43-3.26,17.42,4.69,29.36,16.67,2.11,2.12,20.48,20.82,16.59,25.72-.66,.83-1.79,1.19-3.25,1.19Zm-24.8-12.66c11.28,7.84,24.88,13.18,26.95,10.59,2.02-2.54-6.8-14.12-16.48-23.85-13.33-13.38-25.48-18.46-27.39-16.64-.19,.18-.31,.48-.47,.89-.27,.69-.65,1.64-1.67,2.73-1.29,1.36-2.52,1.81-3.43,2.13-.49,.18-.87,.31-1,.51-1.12,1.71,6.16,11.6,23.49,23.64h0Z"/></g><g><path class="cls-9" d="M93.47,439.47c.92-19,5.08-33.18,8.3-33.12,1.13,.02,1.84,1.78,4.71,2.36,2.26,.45,3.27-.35,4.24-.09,3.53,.91,5.04,15.18,.93,32.89-1.9,8.17-7.47,27.7-12.24,27.16-4.36-.49-6.53-16.81-5.94-29.2Z"/><path class="cls-11" d="M99.58,469.39c-.08,0-.17,0-.25-.01-5.63-.64-7.05-19.81-6.56-29.93,.78-16.28,4.44-33.79,8.98-33.79h.04c.71,.01,1.24,.43,1.8,.88,.68,.53,1.52,1.2,3.03,1.5,1.19,.24,1.97,.09,2.66-.03,.55-.1,1.06-.19,1.61-.05,4.58,1.18,5.27,17.25,1.44,33.73-.67,2.87-6.62,27.72-12.75,27.72Zm2.16-62.33c-2.05,0-6.56,11.41-7.57,32.45h0c-.66,13.73,2.02,28.09,5.31,28.46,3.17,.32,8.37-13.25,11.48-26.62,4.28-18.4,2.13-31.39-.41-32.04-.25-.06-.57,0-1.01,.07-.73,.13-1.74,.32-3.2,.03-1.84-.37-2.87-1.18-3.63-1.77-.41-.32-.73-.57-.96-.57h-.01Z"/></g><g><path class="cls-9" d="M66.15,403.05c18.05-5.99,32.79-7.22,33.89-4.19,.38,1.06-1,2.36-.5,5.25,.39,2.27,1.5,2.92,1.62,3.92,.43,3.62-12.35,10.17-30.34,12.72-8.3,1.17-28.53,3.02-29.75-1.63-1.11-4.24,13.33-12.15,25.09-16.06Z"/><path class="cls-11" d="M53.13,422.82c-6.32,0-12.04-.79-12.76-3.53-1.43-5.48,15.94-13.71,25.55-16.91h0c15.51-5.15,33.21-8.05,34.77-3.76,.24,.66,.04,1.31-.17,2-.25,.83-.57,1.85-.31,3.37,.21,1.2,.62,1.88,.99,2.47,.29,.47,.57,.92,.63,1.48,.55,4.7-14.2,11.13-30.94,13.5-1.62,.23-10.13,1.38-17.77,1.38Zm13.24-19.1h0c-13.04,4.33-25.47,12.01-24.63,15.21,.82,3.14,15.38,3.03,28.97,1.11,18.7-2.64,30.05-9.32,29.74-11.94-.03-.26-.2-.53-.43-.91-.39-.64-.93-1.51-1.18-2.97-.32-1.85,.07-3.1,.35-4.02,.15-.49,.27-.88,.19-1.1-.7-1.92-12.98-2.03-33,4.62Z"/></g><g><path class="cls-9" d="M74.83,422.67c11.71-14.99,23.3-24.17,25.89-22.26,.91,.67,.47,2.52,2.49,4.65,1.58,1.68,2.87,1.6,3.52,2.37,2.36,2.78-4.64,15.31-18.22,27.39-6.26,5.57-22.09,18.31-25.67,15.12-3.27-2.92,4.37-17.5,12-27.27Z"/><path class="cls-11" d="M64.33,451.11c-.8,0-1.47-.2-1.97-.64-4.23-3.76,5.67-20.24,11.91-28.23h0c10.06-12.88,23.19-25.09,26.87-22.39,.57,.42,.76,1.07,.97,1.75,.25,.83,.55,1.86,1.61,2.98,.84,.89,1.56,1.22,2.19,1.51,.5,.23,.98,.45,1.35,.89,3.06,3.61-5.66,17.13-18.29,28.37-1.99,1.77-17.93,15.76-24.64,15.76Zm11.05-28.01c-8.46,10.83-14.56,24.11-12.09,26.31,2.42,2.17,14.48-5.99,24.74-15.12,14.11-12.56,19.86-24.4,18.15-26.41-.17-.2-.46-.33-.86-.52-.68-.31-1.61-.74-2.63-1.82-1.29-1.36-1.66-2.62-1.94-3.54-.15-.49-.26-.88-.45-1.02-1.63-1.2-11.93,5.5-24.92,22.12h0Z"/></g><g><path class="cls-9" d="M78.78,371.01c17.2,8.13,28.7,17.41,27.41,20.36-.45,1.03-2.35,1.01-3.99,3.45-1.29,1.91-.93,3.15-1.54,3.95-2.19,2.91-15.96-1.16-30.73-11.75-6.82-4.88-22.72-17.52-20.39-21.72,2.12-3.83,18.03,.41,29.24,5.71Z"/><path class="cls-11" d="M97.81,400.39c-5.88,0-17.51-5.07-28.29-12.8-2.43-1.74-23.63-17.16-20.6-22.64,2.75-4.95,21,1.08,30.16,5.41,14.77,6.98,29.58,17.11,27.75,21.28-.28,.65-.87,.98-1.5,1.33-.75,.42-1.69,.95-2.55,2.23-.68,1.01-.84,1.79-.99,2.47-.12,.54-.22,1.05-.57,1.51-.61,.81-1.8,1.2-3.41,1.2Zm-44.04-35.87c-1.91,0-3.2,.35-3.62,1.11-1.57,2.84,9.03,12.81,20.19,20.81,15.35,11,28.17,14,29.75,11.9,.16-.21,.22-.52,.32-.96,.16-.73,.37-1.73,1.2-2.96,1.05-1.56,2.19-2.2,3.03-2.67,.45-.25,.81-.45,.9-.67,.82-1.87-7.99-10.43-27.06-19.44h0c-9.16-4.33-19.35-7.12-24.7-7.12Z"/></g><g><path class="cls-9" d="M100.35,359.08c9.25,16.62,13.2,30.87,10.43,32.51-.97,.58-2.5-.55-5.25,.48-2.16,.81-2.59,2.02-3.55,2.32-3.48,1.09-12.3-10.23-18.15-27.44-2.7-7.94-8.28-27.47-3.94-29.53,3.96-1.88,14.42,10.83,20.45,21.66Z"/><path class="cls-11" d="M101.49,395.16c-4.7,0-13.15-12.77-18.33-27.99-.96-2.83-9.23-27.71-3.57-30.4,5.11-2.44,16.44,13.1,21.37,21.96h0c7.95,14.28,14.1,31.13,10.17,33.46-.61,.36-1.28,.29-1.99,.21-.85-.09-1.92-.21-3.37,.33-1.14,.43-1.73,.96-2.25,1.43-.41,.37-.8,.73-1.34,.9-.22,.07-.46,.1-.7,.1Zm-20.69-57.24c-.23,0-.43,.04-.61,.13-2.93,1.39-.11,15.67,4.3,28.67,6.08,17.88,14.77,27.81,17.27,27,.25-.08,.49-.29,.81-.59,.55-.5,1.31-1.19,2.7-1.71,1.76-.66,3.06-.51,4.02-.41,.51,.06,.92,.1,1.12-.02,1.76-1.04-.43-13.13-10.69-31.56h0c-6.28-11.29-15.37-21.5-18.93-21.5Z"/></g><g><path class="cls-9" d="M90.06,425.07c5.41-13.5,11.96-22.71,14.27-21.85,.81,.3,.88,1.75,2.81,2.88,1.52,.89,2.45,.57,3.09,.99,2.33,1.54-.15,12.23-7.55,23.99-3.41,5.43-12.31,18.15-15.63,16.57-3.02-1.44-.52-13.78,3-22.58Z"/><path class="cls-11" d="M87.62,448.47c-.31,0-.6-.06-.87-.19-4.01-1.91-.25-16.23,2.65-23.48h0c4.67-11.67,11.8-23.46,15.17-22.25,.56,.21,.85,.66,1.17,1.15,.37,.57,.78,1.21,1.76,1.79,.78,.46,1.36,.54,1.87,.62,.44,.07,.85,.13,1.25,.39,3.14,2.08-.29,13.74-7.34,24.96-1.87,2.98-10.95,17.01-15.66,17.02Zm16.33-44.62c-1.5,0-7.36,6.79-13.24,21.48h0c-3.8,9.5-5.53,20.64-3.35,21.68,2.11,1.01,9.3-7.67,14.73-16.31,7.63-12.14,9.38-21.95,7.75-23.03-.13-.09-.38-.12-.68-.17-.58-.09-1.37-.21-2.38-.8-1.27-.75-1.83-1.61-2.23-2.24-.17-.27-.35-.55-.47-.59-.04-.01-.08-.02-.13-.02Z"/></g><g><path class="cls-9" d="M104.2,430.46c2.7-14.29,7.35-24.59,9.79-24.2,.85,.14,1.2,1.55,3.32,2.29,1.66,.58,2.51,.08,3.22,.38,2.58,1.06,2.21,12.03-2.78,25-2.3,5.98-8.58,20.18-12.14,19.27-3.25-.83-3.17-13.42-1.41-22.73Z"/><path class="cls-11" d="M105.91,453.94c-.16,0-.32-.02-.47-.06-4.3-1.1-3.37-15.88-1.93-23.55h0c2.34-12.35,7.09-25.29,10.59-24.76,.59,.09,.97,.49,1.37,.9,.47,.49,1,1.04,2.07,1.41,.85,.3,1.44,.27,1.96,.25,.44-.02,.86-.04,1.3,.14,3.48,1.43,2.37,13.54-2.39,25.9-1.3,3.38-7.84,19.76-12.5,19.76Zm-1.01-23.34h0c-1.9,10.05-1.44,21.32,.89,21.92,2.28,.59,7.65-9.33,11.31-18.84,5.15-13.38,4.98-23.35,3.17-24.09-.15-.06-.39-.05-.7-.04-.58,.02-1.38,.06-2.49-.33-1.39-.49-2.1-1.23-2.62-1.77-.22-.23-.45-.47-.57-.49-.02,0-.03,0-.05,0-1.38,0-5.93,7.79-8.93,23.64Z"/></g><g><path class="cls-9" d="M111.73,435.91c-2.83-17.71-2.35-31.57,.06-32.11,.84-.19,1.7,1.31,3.94,1.31,1.77,0,2.37-.93,3.14-.87,2.8,.18,6.56,13.08,6.77,30.18,.1,7.89-.44,26.95-4.09,27.34-3.33,.35-7.97-14.3-9.81-25.84Z"/><path class="cls-11" d="M121.43,462.47c-4.61,0-9.06-18.07-10.4-26.44-2.49-15.56-2.94-32.12,.6-32.91,.63-.14,1.16,.18,1.68,.5,.61,.37,1.3,.79,2.41,.79h0c.87,0,1.39-.26,1.86-.5,.4-.2,.81-.42,1.32-.38,3.76,.25,7.23,14.67,7.43,30.87,.32,26.19-3.88,27.96-4.72,28.05-.06,0-.12,0-.19,0Zm-9.49-57.97h0c-1.28,.4-2.67,11.53,.49,31.31,2.16,13.51,6.78,25.26,8.98,25.26,.02,0,.04,0,.06,0,2.08-.22,3.64-12.17,3.46-26.63-.22-17.77-4.13-29.36-6.11-29.49-.1,0-.35,.1-.6,.23-.54,.27-1.29,.65-2.49,.65h0c-1.5,0-2.49-.6-3.14-.99-.21-.13-.54-.33-.64-.33Z"/></g><g><path class="cls-9" d="M116.38,427.55c-3.01-14.23-2.68-25.52-.28-26.1,.84-.2,1.71,.96,3.94,.83,1.76-.1,2.35-.89,3.12-.89,2.79-.01,6.67,10.25,7.06,24.14,.18,6.41-.15,21.93-3.79,22.46-3.32,.48-8.09-11.17-10.05-20.44Z"/><path class="cls-11" d="M126.24,448.7c-4.31,0-8.97-13.55-10.55-21.01h0c-2.6-12.3-3.25-26.09,.24-26.93,.58-.14,1.08,.08,1.61,.31,.62,.27,1.34,.58,2.46,.51,.9-.05,1.43-.3,1.9-.52,.4-.19,.81-.33,1.26-.37,3.76,0,7.39,11.59,7.76,24.83,.1,3.75,.38,22.48-4.39,23.17-.1,.01-.19,.02-.29,.02Zm-9.94-46.58s-.03,0-.04,0c-1.29,.31-2.57,9.28,.81,25.27h0c2.11,10.01,6.84,20.2,9.26,19.89,2.33-.34,3.47-11.55,3.18-21.74-.4-14.33-4.39-23.45-6.35-23.45h0c-.16,0-.38,.1-.66,.23-.53,.25-1.25,.59-2.42,.66-1.46,.08-2.41-.32-3.1-.62-.27-.12-.54-.23-.68-.23Z"/></g><g><path class="cls-9" d="M79.16,392.12c14.54-.02,25.53,2.62,25.6,5.08,.03,.86-1.29,1.47-1.62,3.69-.26,1.74,.39,2.48,.23,3.23-.56,2.73-11.4,4.42-25.07,1.95-6.31-1.14-21.43-4.65-21.2-8.32,.21-3.34,12.59-5.63,22.07-5.64Z"/><path class="cls-11" d="M91.13,407.99c-3.9,0-8.37-.39-12.95-1.22-3.69-.67-22.08-4.24-21.78-9.06,.28-4.43,14.97-6.29,22.77-6.3h.16c12.53,0,26.05,2.2,26.15,5.77,.02,.59-.3,1.04-.63,1.51-.39,.55-.83,1.18-1,2.3-.13,.89,0,1.46,.12,1.97,.1,.43,.2,.84,.1,1.3-.49,2.39-5.75,3.73-12.93,3.73Zm-11.96-15.17c-10.23,.01-21.21,2.57-21.36,4.98-.15,2.35,10.59,5.77,20.63,7.58,14.11,2.56,23.87,.52,24.26-1.4,.03-.16-.02-.39-.09-.69-.13-.57-.32-1.35-.15-2.5,.22-1.46,.81-2.3,1.25-2.91,.18-.26,.38-.53,.37-.65-.04-1.32-8.49-4.4-24.71-4.4h-.19Z"/></g><g><path class="cls-9" d="M88.2,371.33c12.55,7.35,20.69,15.19,19.5,17.35-.41,.76-1.86,.61-3.27,2.36-1.11,1.37-.92,2.33-1.44,2.91-1.87,2.07-12.07-1.96-22.61-11.01-4.86-4.18-16.13-14.87-14.07-17.91,1.88-2.78,13.7,1.52,21.88,6.31Z"/><path class="cls-11" d="M101.29,395.18c-4.36,0-13.18-4.7-21.36-11.72-2.84-2.44-16.9-14.84-14.19-18.84,2.48-3.67,16.09,2.16,22.82,6.1h0c10.85,6.35,21.49,15.15,19.76,18.3-.29,.52-.78,.75-1.31,.98-.62,.28-1.31,.59-2.03,1.48-.56,.7-.74,1.26-.89,1.76-.13,.42-.25,.82-.57,1.17-.47,.52-1.24,.77-2.24,.77Zm-32.54-30.35c-.93,0-1.58,.19-1.85,.58-1.32,1.95,6.21,10.34,13.95,16.98,10.88,9.35,20.32,12.53,21.63,11.08,.11-.12,.18-.35,.27-.65,.17-.56,.41-1.32,1.14-2.23,.93-1.15,1.86-1.57,2.55-1.88,.29-.13,.59-.27,.65-.38,.64-1.16-5.14-8.15-19.24-16.4h0c-7.06-4.14-15.37-7.11-19.1-7.11Z"/></g><g><path class="cls-9" d="M127.95,365.55c.34,14.54-2.05,25.58-4.52,25.71-.86,.04-1.5-1.26-3.72-1.54-1.75-.22-2.47,.44-3.23,.3-2.74-.5-4.68-11.3-2.51-25.02,1-6.33,4.18-21.53,7.85-21.38,3.35,.14,5.9,12.46,6.13,21.94Z"/><path class="cls-11" d="M123.39,391.96c-.56,0-.99-.29-1.44-.6-.56-.38-1.19-.81-2.32-.95-.89-.11-1.46,.04-1.97,.17-.43,.11-.83,.22-1.3,.13-3.71-.67-5.14-12.74-3.08-25.83,.58-3.68,3.72-21.98,8.5-21.98,.03,0,.05,0,.08,0,4.43,.18,6.62,14.82,6.8,22.62h0c.29,12.57-1.6,26.24-5.19,26.43-.03,0-.05,0-.08,0Zm-4.38-3c.24,0,.51,.01,.79,.05,1.46,.19,2.31,.76,2.93,1.18,.27,.18,.56,.39,.66,.36,1.32-.07,4.23-8.65,3.85-24.99h0c-.24-10.23-3.04-21.15-5.45-21.25h-.03c-2.35,0-5.51,10.76-7.09,20.79-2.24,14.17,.01,23.87,1.94,24.22,.16,.03,.39-.03,.69-.11,.42-.11,.97-.25,1.71-.25Z"/></g><g><path class="cls-9" d="M147.17,416.3c-14.17-3.28-24.27-8.35-23.78-10.76,.17-.85,1.59-1.14,2.42-3.22,.65-1.64,.19-2.5,.51-3.2,1.17-2.53,12.11-1.72,24.86,3.79,5.88,2.54,19.82,9.4,18.76,12.91-.96,3.21-13.54,2.62-22.77,.48Z"/><path class="cls-11" d="M161.83,418.76c-4.93,0-10.85-.86-14.82-1.78h0c-12.25-2.84-25.02-8.07-24.31-11.59,.12-.58,.53-.95,.96-1.33,.51-.45,1.08-.96,1.5-2.01,.33-.84,.33-1.43,.33-1.95,0-.44,0-.86,.19-1.29,1.57-3.43,13.62-1.82,25.78,3.44,3.44,1.49,20.54,9.14,19.16,13.76-.61,2.03-4.28,2.74-8.78,2.74Zm-14.5-3.15c9.97,2.31,21.24,2.31,21.94,0,.68-2.26-9-8.02-18.37-12.06-13.16-5.69-23.13-5.92-23.94-4.14-.07,.15-.07,.39-.07,.7,0,.58,0,1.38-.43,2.47-.54,1.37-1.31,2.05-1.87,2.55-.24,.21-.49,.43-.51,.55-.26,1.3,7.33,6.25,23.25,9.94Z"/></g><g><path class="cls-9" d="M151.68,396.3c-13.9,4.29-25.17,4.99-25.97,2.65-.28-.82,.8-1.79,.47-4-.26-1.74-1.1-2.26-1.17-3.02-.27-2.78,9.6-7.58,23.4-9.22,6.36-.76,21.86-1.84,22.71,1.73,.78,3.26-10.38,9.07-19.44,11.87Z"/><path class="cls-11" d="M130.61,400.95c-3.06,0-5.15-.54-5.57-1.77-.19-.56-.02-1.08,.16-1.63,.21-.64,.45-1.37,.28-2.49-.13-.89-.43-1.4-.7-1.85-.22-.38-.44-.74-.48-1.21-.36-3.75,10.86-8.42,24.01-9.99,3.72-.44,22.35-2.43,23.48,2.27,1.03,4.32-12.46,10.4-19.92,12.7h0c-7.63,2.35-15.94,3.98-21.27,3.98Zm29.94-18.31c-3.68,0-7.97,.27-12.06,.76-14.24,1.7-22.97,6.51-22.78,8.46,.01,.16,.14,.37,.29,.64,.3,.5,.7,1.19,.87,2.35,.22,1.46-.1,2.43-.34,3.15-.1,.3-.2,.62-.16,.74,.42,1.26,9.48,1.72,25.09-3.1,9.78-3.02,19.52-8.69,18.96-11.03-.33-1.37-4.46-1.96-9.88-1.96Z"/></g><g><path class="cls-5" d="M122.67,410.19c-2.58,1.18-4.3-1.3-10.57-1.18-5.86,.12-7.45,2.34-9.52,1.18-3.88-2.19-5.08-13.89,1.57-20.03,5.98-5.53,14.97-5.53,20.09,0,6.07,6.57,2.93,17.97-1.57,20.03Z"/><path class="cls-11" d="M103.83,410.75c-.46,0-.91-.1-1.37-.36-1.61-.91-2.8-3.34-3.17-6.5-.49-4.17,.49-10.02,4.69-13.91,6.07-5.61,15.23-5.6,20.42,.02,2.9,3.14,4.06,7.9,3.09,12.72-.74,3.68-2.6,6.7-4.74,7.68h0c-1.36,.62-2.48,.29-4.04-.17-1.56-.47-3.51-1.04-6.63-.98-2.85,.06-4.7,.62-6.05,1.04-.84,.26-1.55,.47-2.22,.47Zm10.68-24.5c-3.58,0-7.27,1.36-10.21,4.08-4.07,3.77-5.02,9.45-4.54,13.51,.35,2.96,1.47,5.32,2.93,6.14,.96,.54,1.81,.28,3.22-.15,1.38-.42,3.26-1,6.17-1.06,3.2-.06,5.26,.55,6.77,1s2.51,.75,3.71,.2h0c2.01-.92,3.76-3.8,4.47-7.34,.94-4.68-.18-9.28-2.98-12.31-2.51-2.71-5.98-4.07-9.55-4.07Z"/></g></g></g><text class="cls-13" transform="translate(57.2 215.55)"><tspan x="0" y="0">KLINIK</tspan><tspan x="64.23" y="91">0411</tspan></text><path class="cls-2" d="M399.32,212.84c1.21,50.42-15.39,127.65-58.15,142.1-21.27,7.19-40.77-3.94-60.6,12.15-16.69,13.54-13.04,29.68-29.59,42.45-9.93,7.66-25.02,12.48-56.48,8.13-35.63-4.93-146.19-20.24-180.05-107.09-5.15-13.21-23.23-59.58-2.65-94.89,11.89-20.4,30.94-27.27,30.52-44.6-.51-20.97-28.73-24.25-34.08-43.56C-5.02,79.67,134.02-23.46,194.5,8.01c11.54,6.01,20.45,17.03,43.82,24.57,26.31,8.48,42.55,3.39,57.1,4.82,51.53,5.05,101.95,93.84,103.9,175.44Z"/></svg>